<svg width="27" height="37" viewBox="0 0 27 37" fill="none" xmlns="http://www.w3.org/2000/svg">
<path d="M3.33334 0V3.32843H10.0016V0H3.33334ZM10.0016 3.32843V6.6618H13.3366V3.32843H10.0016ZM13.3366 6.6618V9.99674H16.665V6.6618H13.3366ZM16.665 9.99674V13.3301H19.9984V9.99674H16.665ZM19.9984 13.3301V16.665H23.3334V13.3301H19.9984ZM23.3334 16.665V19.9984H26.6667V16.665H23.3334ZM23.3334 19.9984H19.9984V23.3333H23.3334V19.9984ZM19.9984 23.3333H16.665V26.6602H19.9984V23.3333ZM16.665 26.6602H13.3366V29.9951H16.665V26.6602ZM13.3366 29.9951H10.0016V33.3284H13.3366V29.9951ZM10.0016 33.3284H3.33334V36.6634H10.0016V33.3284ZM3.33334 33.3284V29.9951H0V33.3284H3.33334ZM3.33334 29.9951H6.66831V26.6602H3.33334V29.9951ZM6.66831 26.6602H10.0016V23.3333H6.66831V26.6602ZM10.0016 23.3333H13.3366V19.9984H10.0016V23.3333ZM13.3366 19.9984H16.665V16.665H13.3366V19.9984ZM13.3366 16.665V13.3301H10.0016V16.665H13.3366ZM10.0016 13.3301V9.99674H6.66831V13.3301H10.0016ZM6.66831 9.99674V6.6618H3.33334V9.99674H6.66831ZM3.33334 6.6618V3.32843H0V6.6618H3.33334Z" fill="white"/>
</svg>
