<svg width="37" height="28" viewBox="0 0 37 28" fill="none" xmlns="http://www.w3.org/2000/svg">
<path d="M37 4.33163L33.6716 4.33163L33.6716 10.9999L37 10.9999L37 4.33163ZM33.6716 10.9999L30.3382 10.9999L30.3382 14.3349L33.6716 14.3349L33.6716 10.9999ZM30.3382 14.3349L27.0033 14.3349L27.0033 17.6633L30.3382 17.6633L30.3382 14.3349ZM27.0033 17.6633L23.6699 17.6633L23.6699 20.9967L27.0033 20.9967L27.0033 17.6633ZM23.6699 20.9967L20.335 20.9967L20.335 24.3316L23.6699 24.3316L23.6699 20.9967ZM20.335 24.3316L17.0016 24.3316L17.0016 27.665L20.335 27.665L20.335 24.3316ZM17.0016 24.3316L17.0016 20.9967L13.6667 20.9967L13.6667 24.3316L17.0016 24.3316ZM13.6667 20.9967L13.6667 17.6633L10.3398 17.6633L10.3398 20.9967L13.6667 20.9967ZM10.3398 17.6633L10.3398 14.3349L7.00487 14.3349L7.00487 17.6633L10.3398 17.6633ZM7.00487 14.3349L7.00487 10.9999L3.67158 10.9999L3.67158 14.3349L7.00487 14.3349ZM3.67158 10.9999L3.67158 4.33163L0.336613 4.33163L0.336612 10.9999L3.67158 10.9999ZM3.67158 4.33163L7.00487 4.33163L7.00487 0.99829L3.67158 0.99829L3.67158 4.33163ZM7.00487 4.33163L7.00487 7.6666L10.3398 7.6666L10.3398 4.33163L7.00487 4.33163ZM10.3398 7.6666L10.3398 10.9999L13.6667 10.9999L13.6667 7.6666L10.3398 7.6666ZM13.6667 10.9999L13.6667 14.3349L17.0016 14.3349L17.0016 10.9999L13.6667 10.9999ZM17.0016 14.3349L17.0016 17.6633L20.335 17.6633L20.335 14.3349L17.0016 14.3349ZM20.335 14.3349L23.6699 14.3349L23.6699 10.9999L20.335 10.9999L20.335 14.3349ZM23.6699 10.9999L27.0033 10.9999L27.0033 7.6666L23.6699 7.6666L23.6699 10.9999ZM27.0033 7.6666L30.3382 7.6666L30.3382 4.33163L27.0033 4.33163L27.0033 7.6666ZM30.3382 4.33163L33.6716 4.33163L33.6716 0.998291L30.3382 0.998291L30.3382 4.33163Z" fill="white"/>
</svg>
