<svg width="27" height="37" viewBox="0 0 27 37" fill="none" xmlns="http://www.w3.org/2000/svg">
<path d="M23.3334 37L23.3334 33.6716L16.6651 33.6716L16.6651 37L23.3334 37ZM16.6651 33.6716L16.6651 30.3382L13.3301 30.3382L13.3301 33.6716L16.6651 33.6716ZM13.3301 30.3382L13.3301 27.0033L10.0017 27.0033L10.0017 30.3382L13.3301 30.3382ZM10.0017 27.0033L10.0017 23.6699L6.66836 23.6699L6.66836 27.0033L10.0017 27.0033ZM6.66836 23.6699L6.66837 20.335L3.33339 20.335L3.33339 23.6699L6.66836 23.6699ZM3.33339 20.335L3.33339 17.0016L5.89688e-05 17.0016L5.86774e-05 20.335L3.33339 20.335ZM3.33339 17.0016L6.66837 17.0016L6.66837 13.6667L3.3334 13.6667L3.33339 17.0016ZM6.66837 13.6667L10.0017 13.6667L10.0017 10.3398L6.66837 10.3398L6.66837 13.6667ZM10.0017 10.3398L13.3301 10.3398L13.3301 7.00487L10.0017 7.00487L10.0017 10.3398ZM13.3301 7.00487L16.6651 7.00487L16.6651 3.67158L13.3301 3.67158L13.3301 7.00487ZM16.6651 3.67158L23.3334 3.67158L23.3334 0.336612L16.6651 0.336612L16.6651 3.67158ZM23.3334 3.67158L23.3334 7.00487L26.6668 7.00487L26.6668 3.67158L23.3334 3.67158ZM23.3334 7.00487L19.9984 7.00487L19.9984 10.3398L23.3334 10.3398L23.3334 7.00487ZM19.9984 10.3398L16.6651 10.3398L16.6651 13.6667L19.9984 13.6667L19.9984 10.3398ZM16.6651 13.6667L13.3301 13.6667L13.3301 17.0016L16.6651 17.0016L16.6651 13.6667ZM13.3301 17.0016L10.0017 17.0016L10.0017 20.335L13.3301 20.335L13.3301 17.0016ZM13.3301 20.335L13.3301 23.6699L16.6651 23.6699L16.6651 20.335L13.3301 20.335ZM16.6651 23.6699L16.6651 27.0033L19.9984 27.0033L19.9984 23.6699L16.6651 23.6699ZM19.9984 27.0033L19.9984 30.3382L23.3334 30.3382L23.3334 27.0033L19.9984 27.0033ZM23.3334 30.3382L23.3334 33.6716L26.6667 33.6716L26.6667 30.3382L23.3334 30.3382Z" fill="white"/>
</svg>
