<svg width="78" height="78" viewBox="0 0 78 78" fill="none" xmlns="http://www.w3.org/2000/svg">
<path d="M23.1561 57.2814H28.7624L30.1286 56.0017C40.8629 45.9453 54.7842 39.9721 69.4686 39.122V30.4689H23.1561V57.2814ZM32.9061 32.9064C34.1114 32.9064 35.2895 33.2638 36.2916 33.9334C37.2937 34.6029 38.0748 35.5547 38.536 36.6681C38.9972 37.7816 39.1179 39.0069 38.8828 40.189C38.6477 41.371 38.0673 42.4568 37.2151 43.3091C36.3628 44.1613 35.277 44.7417 34.095 44.9768C32.9129 45.2119 31.6876 45.0912 30.5742 44.63C29.4607 44.1688 28.5089 43.3877 27.8394 42.3856C27.1698 41.3835 26.8124 40.2054 26.8124 39.0001C26.8143 37.3846 27.457 35.8357 28.5993 34.6933C29.7417 33.5509 31.2906 32.9083 32.9061 32.9064Z" fill="#E62247"/>
<path d="M69.469 57.2813V41.5594C55.6632 42.3968 42.5628 47.9465 32.3568 57.2813H69.469Z" fill="#E62247"/>
<path d="M73.1249 23.1564H19.4999C18.5302 23.1564 17.6002 23.5416 16.9145 24.2273C16.2288 24.9129 15.8436 25.8429 15.8436 26.8126V60.9376C15.8436 61.9073 16.2288 62.8373 16.9145 63.523C17.6002 64.2087 18.5302 64.5939 19.4999 64.5939H40.2186V67.4945L26.2676 74.4658C26.0102 74.5942 25.8065 74.8096 25.6926 75.0738C25.5787 75.3379 25.5619 75.6339 25.6453 75.9092C25.7286 76.1846 25.9066 76.4216 26.1479 76.5783C26.3891 76.735 26.6781 76.8013 26.9635 76.7655L46.3124 74.3512L65.6613 76.7704C65.9467 76.8062 66.2356 76.7399 66.4769 76.5832C66.7181 76.4265 66.8962 76.1895 66.9795 75.9141C67.0628 75.6388 67.046 75.3428 66.9321 75.0786C66.8183 74.8145 66.6146 74.5991 66.3572 74.4706L52.4061 67.4945V64.5939H73.1249C74.0946 64.5939 75.0246 64.2087 75.7102 63.523C76.3959 62.8373 76.7811 61.9073 76.7811 60.9376V26.8126C76.7811 25.8429 76.3959 24.9129 75.7102 24.2273C75.0246 23.5416 74.0946 23.1564 73.1249 23.1564ZM49.9686 67.0314H42.6561V64.5939H49.9686V67.0314ZM71.9061 58.5001C71.9061 58.8234 71.7777 59.1334 71.5492 59.3619C71.3206 59.5905 71.0106 59.7189 70.6874 59.7189H21.9374C21.6141 59.7189 21.3042 59.5905 21.0756 59.3619C20.847 59.1334 20.7186 58.8234 20.7186 58.5001V29.2501C20.7186 28.9269 20.847 28.6169 21.0756 28.3883C21.3042 28.1598 21.6141 28.0314 21.9374 28.0314H70.6874C71.0106 28.0314 71.3206 28.1598 71.5492 28.3883C71.7777 28.6169 71.9061 28.9269 71.9061 29.2501V58.5001Z" fill="#E62247"/>
<path d="M9.74988 57.2814C10.473 57.2814 11.1799 57.0669 11.7812 56.6652C12.3824 56.2634 12.8511 55.6924 13.1278 55.0243C13.4045 54.3562 13.4769 53.6211 13.3359 52.9118C13.1948 52.2026 12.8466 51.5511 12.3352 51.0398C11.8239 50.5284 11.1724 50.1802 10.4632 50.0391C9.75393 49.898 9.01878 49.9705 8.35069 50.2472C7.6826 50.5239 7.11157 50.9926 6.70982 51.5938C6.30806 52.1951 6.09363 52.902 6.09363 53.6251C6.09363 54.5948 6.47884 55.5248 7.16452 56.2105C7.8502 56.8962 8.78018 57.2814 9.74988 57.2814ZM9.74988 52.4064C9.99092 52.4064 10.2266 52.4779 10.427 52.6118C10.6274 52.7457 10.7836 52.936 10.8759 53.1587C10.9681 53.3814 10.9922 53.6265 10.9452 53.8629C10.8982 54.0993 10.7821 54.3165 10.6117 54.4869C10.4412 54.6574 10.2241 54.7734 9.98764 54.8205C9.75123 54.8675 9.50618 54.8433 9.28348 54.7511C9.06078 54.6589 8.87044 54.5026 8.73652 54.3022C8.60261 54.1018 8.53113 53.8662 8.53113 53.6251C8.53113 53.3019 8.65953 52.9919 8.88809 52.7633C9.11665 52.5348 9.42664 52.4064 9.74988 52.4064Z" fill="#FFBA09"/>
<path d="M58.4999 45.0939H41.5885L56.2342 36.6394C56.6505 36.3995 57.0155 36.0799 57.3082 35.6989C57.601 35.3179 57.8157 34.8829 57.9402 34.4188C58.0647 33.9548 58.0966 33.4707 58.0339 32.9943C57.9712 32.5179 57.8152 32.0586 57.5748 31.6425L52.6998 23.199C52.2138 22.3599 51.415 21.7477 50.4784 21.4964C49.5418 21.2451 48.5438 21.3753 47.703 21.8584L33.0585 30.3165L41.5129 15.6708C41.7533 15.2548 41.9093 14.7954 41.972 14.319C42.0347 13.8426 42.0028 13.3586 41.8783 12.8945C41.7538 12.4304 41.5391 11.9954 41.2463 11.6144C40.9536 11.2334 40.5886 10.9138 40.1723 10.6739L31.7288 5.79893C31.3128 5.55859 30.8534 5.40262 30.377 5.33992C29.9006 5.27722 29.4166 5.30904 28.9525 5.43355C28.4884 5.55806 28.0534 5.77281 27.6724 6.06554C27.2914 6.35827 26.9718 6.72323 26.7319 7.13956L18.2811 21.7853V4.87512C18.2811 3.90542 17.8959 2.97544 17.2102 2.28976C16.5246 1.60408 15.5946 1.21887 14.6249 1.21887H4.87488C3.90518 1.21887 2.9752 1.60408 2.28952 2.28976C1.60384 2.97544 1.21863 3.90542 1.21863 4.87512V58.5001C1.21863 59.4698 1.60384 60.3998 2.28952 61.0855C2.9752 61.7712 3.90518 62.1564 4.87488 62.1564H58.4999C59.4696 62.1564 60.3996 61.7712 61.0852 61.0855C61.7709 60.3998 62.1561 59.4698 62.1561 58.5001V48.7501C62.1561 47.7804 61.7709 46.8504 61.0852 46.1648C60.3996 45.4791 59.4696 45.0939 58.4999 45.0939ZM15.8436 58.5001C15.8436 58.8234 15.7152 59.1334 15.4867 59.3619C15.2581 59.5905 14.9481 59.7189 14.6249 59.7189H4.87488C4.55165 59.7189 4.24165 59.5905 4.01309 59.3619C3.78453 59.1334 3.65613 58.8234 3.65613 58.5001V47.5314H15.8436V58.5001ZM15.8436 45.0939H3.65613V40.2189H15.8436V45.0939ZM15.8436 37.7814H3.65613V32.9064H15.8436V37.7814ZM15.8436 30.4689H3.65613V25.5939H15.8436V30.4689ZM15.8436 23.1564H3.65613V18.2814H15.8436V23.1564ZM15.8436 15.8439H3.65613V10.9689H15.8436V15.8439ZM15.8436 8.53137H3.65613V4.87512C3.65613 4.55189 3.78453 4.2419 4.01309 4.01334C4.24165 3.78478 4.55165 3.65637 4.87488 3.65637H14.6249C14.9481 3.65637 15.2581 3.78478 15.4867 4.01334C15.7152 4.2419 15.8436 4.55189 15.8436 4.87512V8.53137ZM48.9217 23.9729C49.2016 23.8113 49.5343 23.7675 49.8465 23.8512C50.1587 23.9348 50.4249 24.1391 50.5865 24.419L55.4615 32.8625C55.6231 33.1424 55.6669 33.4751 55.5833 33.7873C55.4996 34.0995 55.2954 34.3657 55.0155 34.5273L18.4335 55.647L30.621 34.5395L48.9217 23.9729ZM18.2811 26.6615L28.8477 8.35953C29.0093 8.07961 29.2755 7.87537 29.5877 7.79171C29.8999 7.70806 30.2326 7.75186 30.5125 7.91347L38.956 12.7885C39.2359 12.9501 39.4402 13.2163 39.5238 13.5285C39.6075 13.8407 39.5637 14.1734 39.4021 14.4533L18.2811 51.0365V26.6615ZM59.7186 58.5001C59.7186 58.8234 59.5902 59.1334 59.3617 59.3619C59.1331 59.5905 58.8231 59.7189 58.4999 59.7189H18.0569C18.1934 59.3452 18.2675 58.9515 18.2763 58.5537L37.3668 47.5314H58.4999C58.8231 47.5314 59.1331 47.6598 59.3617 47.8883C59.5902 48.1169 59.7186 48.4269 59.7186 48.7501V58.5001Z" fill="#20DDF5"/>
</svg>
