<svg width="78" height="78" viewBox="0 0 78 78" fill="none" xmlns="http://www.w3.org/2000/svg">
<path d="M73.1254 25.5938H54.8441V63.375C54.8441 64.9912 54.2021 66.5411 53.0593 67.6839C51.9165 68.8267 50.3665 69.4688 48.7504 69.4688H40.2191V73.125C40.2191 74.0947 40.6043 75.0247 41.29 75.7104C41.9757 76.396 42.9057 76.7812 43.8754 76.7812H73.1254C74.0951 76.7812 75.025 76.396 75.7107 75.7104C76.3964 75.0247 76.7816 74.0947 76.7816 73.125V29.25C76.7816 28.2803 76.3964 27.3503 75.7107 26.6646C75.025 25.979 74.0951 25.5938 73.1254 25.5938Z" fill="#3E06DE"/>
<path d="M52.4066 63.375V19.5C52.4066 18.5303 52.0214 17.6003 51.3357 16.9146C50.65 16.229 49.7201 15.8438 48.7504 15.8438H19.5004C18.5307 15.8438 17.6007 16.229 16.915 16.9146C16.2293 17.6003 15.8441 18.5303 15.8441 19.5V63.375C15.8441 64.3447 16.2293 65.2747 16.915 65.9604C17.6007 66.646 18.5307 67.0312 19.5004 67.0312H48.7504C49.7201 67.0312 50.65 66.646 51.3357 65.9604C52.0214 65.2747 52.4066 64.3447 52.4066 63.375ZM44.7407 50.8341L39.8657 55.7091C39.6832 55.89 39.4483 56.0086 39.1944 56.048C38.9405 56.0874 38.6806 56.0456 38.4519 55.9284L29.4941 51.4556L25.2407 55.7091C25.0112 55.9386 24.6999 56.0675 24.3754 56.0675C24.0508 56.0675 23.7396 55.9386 23.5101 55.7091C23.2806 55.4796 23.1516 55.1683 23.1516 54.8438C23.1516 54.5192 23.2806 54.2079 23.5101 53.9784L28.3851 49.1034C28.5675 48.9225 28.8025 48.8039 29.0564 48.7645C29.3103 48.7251 29.5701 48.7669 29.7988 48.8841L38.7566 53.3569L43.0101 49.1034C43.2395 48.8739 43.5508 48.745 43.8754 48.745C44.1999 48.745 44.5112 48.8739 44.7407 49.1034C44.9702 49.3329 45.0991 49.6442 45.0991 49.9688C45.0991 50.2933 44.9702 50.6046 44.7407 50.8341Z" fill="#3E06DE"/>
<path d="M60.9379 9.75H13.4066V7.3125C13.4066 5.69634 12.7646 4.14637 11.6218 3.00357C10.479 1.86077 8.92903 1.21875 7.31287 1.21875C5.6967 1.21875 4.14673 1.86077 3.00393 3.00357C1.86113 4.14637 1.21912 5.69634 1.21912 7.3125V45.0938C1.21912 46.7099 1.86113 48.2599 3.00393 49.4027C3.56979 49.9685 4.24156 50.4174 4.98089 50.7236C5.72022 51.0299 6.51262 51.1875 7.31287 51.1875H60.9379C61.2611 51.1875 61.5711 51.0591 61.7997 50.8305C62.0282 50.602 62.1566 50.292 62.1566 49.9688V10.9688C62.1566 10.6455 62.0282 10.3355 61.7997 10.107C61.5711 9.8784 61.2611 9.75 60.9379 9.75ZM3.65662 7.3125C3.65662 6.3428 4.04183 5.41282 4.72751 4.72714C5.41319 4.04146 6.34317 3.65625 7.31287 3.65625C8.28256 3.65625 9.21255 4.04146 9.89823 4.72714C10.5839 5.41282 10.9691 6.3428 10.9691 7.3125V39C9.91431 38.2089 8.63137 37.7812 7.31287 37.7812C5.99436 37.7812 4.71142 38.2089 3.65662 39V7.3125ZM59.7191 48.75H7.31287C6.34317 48.75 5.41319 48.3648 4.72751 47.6791C4.04183 46.9934 3.65662 46.0634 3.65662 45.0938V43.875C3.65662 42.9053 4.04183 41.9753 4.72751 41.2896C5.41319 40.604 6.34317 40.2188 7.31287 40.2188C8.28256 40.2188 9.21255 40.604 9.89823 41.2896C10.5839 41.9753 10.9691 42.9053 10.9691 43.875C10.9691 44.1982 11.0975 44.5082 11.3261 44.7368C11.5546 44.9653 11.8646 45.0938 12.1879 45.0938C12.5111 45.0938 12.8211 44.9653 13.0497 44.7368C13.2782 44.5082 13.4066 44.1982 13.4066 43.875V12.1875H59.7191V48.75Z" fill="#20DDF5"/>
<path d="M20.7191 25.5938C21.7971 25.5903 22.8436 25.2295 23.6948 24.568C24.546 23.9064 25.1539 22.9814 25.4234 21.9375H31.8584C32.0372 22.6045 32.3527 23.227 32.7847 23.7657C30.5046 24.4986 28.491 25.8871 26.9954 27.7576C25.4998 29.6282 24.5885 31.898 24.3753 34.2835C23.2265 34.5801 22.2252 35.2856 21.5593 36.2676C20.8933 37.2496 20.6084 38.4409 20.7579 39.6179C20.9074 40.795 21.4811 41.8772 22.3714 42.6616C23.2617 43.4459 24.4075 43.8787 25.5941 43.8787C26.7806 43.8787 27.9264 43.4459 28.8167 42.6616C29.707 41.8772 30.2807 40.795 30.4302 39.6179C30.5797 38.4409 30.2948 37.2496 29.6289 36.2676C28.9629 35.2856 27.9617 34.5801 26.8128 34.2835C27.0804 31.901 28.2164 29.7007 30.0038 28.1029C31.7911 26.5051 34.1045 25.6218 36.5019 25.6218C38.8993 25.6218 41.2126 26.5051 43 28.1029C44.7873 29.7007 45.9233 31.901 46.1909 34.2835C45.0421 34.5801 44.0408 35.2856 43.3749 36.2676C42.709 37.2496 42.424 38.4409 42.5735 39.6179C42.7231 40.795 43.2967 41.8772 44.187 42.6616C45.0773 43.4459 46.2231 43.8787 47.4097 43.8787C48.5962 43.8787 49.742 43.4459 50.6323 42.6616C51.5226 41.8772 52.0963 40.795 52.2458 39.6179C52.3953 38.4409 52.1104 37.2496 51.4445 36.2676C50.7785 35.2856 49.7773 34.5801 48.6284 34.2835C48.4246 31.9127 47.5313 29.6534 46.0586 27.7844C44.5859 25.9154 42.5983 24.5184 40.3409 23.7657C40.773 23.227 41.0884 22.6045 41.2672 21.9375H47.7022C47.9988 23.0864 48.7043 24.0876 49.6863 24.7536C50.6684 25.4195 51.8596 25.7044 53.0367 25.5549C54.2137 25.4054 55.2959 24.8317 56.0803 23.9414C56.8646 23.0511 57.2974 21.9053 57.2974 20.7188C57.2974 19.5322 56.8646 18.3864 56.0803 17.4961C55.2959 16.6058 54.2137 16.0321 53.0367 15.8826C51.8596 15.7331 50.6684 16.018 49.6863 16.684C48.7043 17.3499 47.9988 18.3512 47.7022 19.5H41.2672C40.9865 18.4673 40.3738 17.5556 39.5237 16.9056C38.6735 16.2557 37.633 15.9035 36.5628 15.9035C35.4926 15.9035 34.4522 16.2557 33.602 16.9056C32.7518 17.5556 32.1391 18.4673 31.8584 19.5H25.4234C25.1953 18.6165 24.7238 17.8148 24.0626 17.186C23.4014 16.5573 22.5769 16.1267 21.6831 15.9433C20.7893 15.7599 19.8619 15.831 19.0065 16.1486C18.1511 16.4662 17.402 17.0175 16.8444 17.7398C16.2868 18.462 15.9431 19.3263 15.8524 20.2342C15.7617 21.1422 15.9276 22.0573 16.3313 22.8756C16.735 23.6939 17.3603 24.3825 18.136 24.863C18.9116 25.3436 19.8066 25.5967 20.7191 25.5938ZM28.0316 39C28.0316 39.4821 27.8886 39.9534 27.6208 40.3542C27.3529 40.7551 26.9723 41.0675 26.5269 41.252C26.0815 41.4365 25.5914 41.4847 25.1185 41.3907C24.6457 41.2966 24.2114 41.0645 23.8705 40.7236C23.5296 40.3827 23.2975 39.9484 23.2034 39.4756C23.1093 39.0027 23.1576 38.5126 23.3421 38.0672C23.5266 37.6218 23.839 37.2412 24.2399 36.9733C24.6407 36.7055 25.112 36.5625 25.5941 36.5625C26.2405 36.5625 26.8605 36.8193 27.3176 37.2765C27.7748 37.7336 28.0316 38.3536 28.0316 39ZM49.9691 39C49.9691 39.4821 49.8261 39.9534 49.5583 40.3542C49.2904 40.7551 48.9097 41.0675 48.4644 41.252C48.019 41.4365 47.5289 41.4847 47.056 41.3907C46.5832 41.2966 46.1489 41.0645 45.808 40.7236C45.4671 40.3827 45.235 39.9484 45.1409 39.4756C45.0468 39.0027 45.0951 38.5126 45.2796 38.0672C45.4641 37.6218 45.7765 37.2412 46.1774 36.9733C46.5782 36.7055 47.0495 36.5625 47.5316 36.5625C48.178 36.5625 48.798 36.8193 49.2551 37.2765C49.7123 37.7336 49.9691 38.3536 49.9691 39ZM52.4066 18.2813C52.8887 18.2813 53.3599 18.4242 53.7608 18.6921C54.1616 18.9599 54.474 19.3406 54.6585 19.786C54.843 20.2314 54.8913 20.7215 54.7972 21.1943C54.7032 21.6671 54.471 22.1015 54.1301 22.4424C53.7892 22.7832 53.3549 23.0154 52.8821 23.1094C52.4093 23.2035 51.9192 23.1552 51.4738 22.9707C51.0284 22.7862 50.6477 22.4738 50.3799 22.073C50.112 21.6721 49.9691 21.2009 49.9691 20.7188C49.9691 20.0723 50.2259 19.4523 50.683 18.9952C51.1401 18.5381 51.7601 18.2813 52.4066 18.2813ZM36.5628 18.2813C37.0449 18.2813 37.5162 18.4242 37.917 18.6921C38.3179 18.9599 38.6303 19.3406 38.8148 19.786C38.9993 20.2314 39.0475 20.7215 38.9535 21.1943C38.8594 21.6671 38.6273 22.1015 38.2864 22.4424C37.9455 22.7832 37.5112 23.0154 37.0383 23.1094C36.5655 23.2035 36.0754 23.1552 35.63 22.9707C35.1846 22.7862 34.8039 22.4738 34.5361 22.073C34.2683 21.6721 34.1253 21.2009 34.1253 20.7188C34.1253 20.0723 34.3821 19.4523 34.8392 18.9952C35.2964 18.5381 35.9163 18.2813 36.5628 18.2813ZM20.7191 18.2813C21.2012 18.2813 21.6724 18.4242 22.0733 18.6921C22.4741 18.9599 22.7865 19.3406 22.971 19.786C23.1555 20.2314 23.2038 20.7215 23.1097 21.1943C23.0157 21.6671 22.7835 22.1015 22.4426 22.4424C22.1017 22.7832 21.6674 23.0154 21.1946 23.1094C20.7218 23.2035 20.2317 23.1552 19.7863 22.9707C19.3409 22.7862 18.9602 22.4738 18.6924 22.073C18.4245 21.6721 18.2816 21.2009 18.2816 20.7188C18.2816 20.0723 18.5384 19.4523 18.9955 18.9952C19.4526 18.5381 20.0726 18.2813 20.7191 18.2813Z" fill="#FFBA09"/>
</svg>
