<svg width="78" height="78" viewBox="0 0 78 78" fill="none" xmlns="http://www.w3.org/2000/svg">
<path d="M75.5625 68.2495H73.125V40.2183C73.125 39.2486 72.7398 38.3186 72.0541 37.6329C71.3684 36.9472 70.4384 36.562 69.4688 36.562H23.1562C22.1866 36.562 21.2566 36.9472 20.5709 37.6329C19.8852 38.3186 19.5 39.2486 19.5 40.2183V68.2495H17.0625C16.7393 68.2495 16.4293 68.3779 16.2007 68.6065C15.9722 68.835 15.8438 69.145 15.8438 69.4683C15.8457 71.4071 16.6167 73.2659 17.9877 74.6368C19.3586 76.0078 21.2174 76.7788 23.1562 76.7808H69.4688C71.4076 76.7788 73.2664 76.0078 74.6373 74.6368C76.0083 73.2659 76.7793 71.4071 76.7812 69.4683C76.7812 69.145 76.6528 68.835 76.4243 68.6065C76.1957 68.3779 75.8857 68.2495 75.5625 68.2495ZM21.9375 40.2183C21.9375 39.895 22.0659 39.585 22.2945 39.3565C22.523 39.1279 22.833 38.9995 23.1562 38.9995H69.4688C69.792 38.9995 70.102 39.1279 70.3305 39.3565C70.5591 39.585 70.6875 39.895 70.6875 40.2183V68.2495H53.625C53.3018 68.2495 52.9918 68.3779 52.7632 68.6065C52.5347 68.835 52.4062 69.145 52.4062 69.4683C52.4062 69.7915 52.2778 70.1015 52.0493 70.33C51.8207 70.5586 51.5107 70.687 51.1875 70.687H41.4375C41.1143 70.687 40.8043 70.5586 40.5757 70.33C40.3472 70.1015 40.2188 69.7915 40.2188 69.4683C40.2188 69.145 40.0903 68.835 39.8618 68.6065C39.6332 68.3779 39.3232 68.2495 39 68.2495H21.9375V40.2183Z" fill="#E62247"/>
<path d="M68.25 64.5933V42.6558C68.25 42.3325 68.1216 42.0225 67.893 41.794C67.6645 41.5654 67.3545 41.437 67.0312 41.437H25.5938C25.2705 41.437 24.9605 41.5654 24.732 41.794C24.5034 42.0225 24.375 42.3325 24.375 42.6558V64.5933C24.375 64.9165 24.5034 65.2265 24.732 65.455C24.9605 65.6836 25.2705 65.812 25.5938 65.812H67.0312C67.3545 65.812 67.6645 65.6836 67.893 65.455C68.1216 65.2265 68.25 64.9165 68.25 64.5933Z" fill="#E62247"/>
<path d="M58.5 1.21826H4.875C3.9053 1.21826 2.97532 1.60347 2.28964 2.28915C1.60396 2.97483 1.21875 3.90481 1.21875 4.87451V58.4995C1.21875 59.4692 1.60396 60.3992 2.28964 61.0849C2.97532 61.7705 3.9053 62.1558 4.875 62.1558H58.5C59.4697 62.1558 60.3997 61.7705 61.0854 61.0849C61.771 60.3992 62.1562 59.4692 62.1562 58.4995V4.87451C62.1562 3.90481 61.771 2.97483 61.0854 2.28915C60.3997 1.60347 59.4697 1.21826 58.5 1.21826ZM4.875 3.65576H58.5C58.8232 3.65576 59.1332 3.78417 59.3618 4.01273C59.5903 4.24129 59.7188 4.55128 59.7188 4.87451V8.53076H3.65625V4.87451C3.65625 4.55128 3.78465 4.24129 4.01321 4.01273C4.24177 3.78417 4.55177 3.65576 4.875 3.65576ZM58.5 59.7183H4.875C4.55177 59.7183 4.24177 59.5899 4.01321 59.3613C3.78465 59.1327 3.65625 58.8227 3.65625 58.4995V10.9683H59.7188V58.4995C59.7188 58.8227 59.5903 59.1327 59.3618 59.3613C59.1332 59.5899 58.8232 59.7183 58.5 59.7183Z" fill="#20DDF5"/>
<path d="M7.3125 7.31201C7.9856 7.31201 8.53125 6.76636 8.53125 6.09326C8.53125 5.42016 7.9856 4.87451 7.3125 4.87451C6.6394 4.87451 6.09375 5.42016 6.09375 6.09326C6.09375 6.76636 6.6394 7.31201 7.3125 7.31201Z" fill="#FFBA09"/>
<path d="M10.9688 7.31201C11.6418 7.31201 12.1875 6.76636 12.1875 6.09326C12.1875 5.42016 11.6418 4.87451 10.9688 4.87451C10.2957 4.87451 9.75 5.42016 9.75 6.09326C9.75 6.76636 10.2957 7.31201 10.9688 7.31201Z" fill="#FFBA09"/>
<path d="M14.625 7.31201C15.2981 7.31201 15.8438 6.76636 15.8438 6.09326C15.8438 5.42016 15.2981 4.87451 14.625 4.87451C13.9519 4.87451 13.4062 5.42016 13.4062 6.09326C13.4062 6.76636 13.9519 7.31201 14.625 7.31201Z" fill="#FFBA09"/>
<path d="M54.8438 14.6245H8.53125C8.20802 14.6245 7.89802 14.7529 7.66946 14.9815C7.4409 15.21 7.3125 15.52 7.3125 15.8433V31.687C7.3125 32.0102 7.4409 32.3202 7.66946 32.5488C7.89802 32.7774 8.20802 32.9058 8.53125 32.9058H54.8438C55.167 32.9058 55.477 32.7774 55.7055 32.5488C55.9341 32.3202 56.0625 32.0102 56.0625 31.687V15.8433C56.0625 15.52 55.9341 15.21 55.7055 14.9815C55.477 14.7529 55.167 14.6245 54.8438 14.6245ZM53.625 30.4683H9.75V17.062H53.625V30.4683Z" fill="#FFBA09"/>
<path d="M25.5938 36.562H8.53125C8.20802 36.562 7.89802 36.6904 7.66946 36.919C7.4409 37.1475 7.3125 37.4575 7.3125 37.7808V54.8433C7.3125 55.1665 7.4409 55.4765 7.66946 55.705C7.89802 55.9336 8.20802 56.062 8.53125 56.062H25.5938C25.917 56.062 26.227 55.9336 26.4555 55.705C26.6841 55.4765 26.8125 55.1665 26.8125 54.8433V37.7808C26.8125 37.4575 26.6841 37.1475 26.4555 36.919C26.227 36.6904 25.917 36.562 25.5938 36.562ZM24.375 53.6245H9.75V38.9995H24.375V53.6245Z" fill="#20DDF5"/>
<path d="M54.8438 36.562H31.6875C31.3643 36.562 31.0543 36.6904 30.8257 36.919C30.5972 37.1475 30.4688 37.4575 30.4688 37.7808V54.8433C30.4688 55.1665 30.5972 55.4765 30.8257 55.705C31.0543 55.9336 31.3643 56.062 31.6875 56.062H54.8438C55.167 56.062 55.477 55.9336 55.7055 55.705C55.9341 55.4765 56.0625 55.1665 56.0625 54.8433V37.7808C56.0625 37.4575 55.9341 37.1475 55.7055 36.919C55.477 36.6904 55.167 36.562 54.8438 36.562ZM53.625 53.6245H32.9062V38.9995H53.625V53.6245Z" fill="#20DDF5"/>
</svg>
