<svg width="76" height="76" viewBox="0 0 76 76" fill="none" xmlns="http://www.w3.org/2000/svg">
<path d="M72.1254 24.5938H18.5004C17.5307 24.5938 16.6007 24.979 15.915 25.6647C15.2293 26.3504 14.8441 27.2804 14.8441 28.2501V72.1251C14.8441 73.0948 15.2293 74.0247 15.915 74.7104C16.6007 75.3961 17.5307 75.7813 18.5004 75.7813H72.1254C73.0951 75.7813 74.025 75.3961 74.7107 74.7104C75.3964 74.0247 75.7816 73.0948 75.7816 72.1251V28.2501C75.7816 27.2804 75.3964 26.3504 74.7107 25.6647C74.025 24.979 73.0951 24.5938 72.1254 24.5938ZM55.0629 34.3438C56.9912 34.3438 58.8763 34.9156 60.4797 35.987C62.0831 37.0583 63.3327 38.5811 64.0707 40.3626C64.8086 42.1442 65.0017 44.1046 64.6255 45.9959C64.2493 47.8873 63.3207 49.6245 61.9572 50.9881C60.5936 52.3517 58.8563 53.2803 56.965 53.6565C55.0737 54.0327 53.1133 53.8396 51.3317 53.1016C49.5501 52.3637 48.0274 51.114 46.956 49.5106C45.8847 47.9072 45.3129 46.0222 45.3129 44.0938C45.3129 41.5079 46.3401 39.028 48.1686 37.1995C49.9971 35.371 52.477 34.3438 55.0629 34.3438ZM63.0457 65.8363C58.7801 68.6272 51.5285 69.3341 44.7644 65.8363C35.9407 61.3635 29.201 65.5926 28.9207 65.8363C28.6492 66.0125 28.3188 66.0736 28.0022 66.0061C27.6857 65.9387 27.4089 65.7483 27.2327 65.4768C27.0565 65.2053 26.9955 64.8749 27.0629 64.5583C27.1303 64.2418 27.3207 63.965 27.5922 63.7888C27.9213 63.5816 35.7701 58.5847 45.8735 63.7888C54.6851 68.2616 61.4369 64.0326 61.7172 63.7888C61.9888 63.6126 62.3191 63.5516 62.6357 63.619C62.9522 63.6864 63.229 63.8768 63.4052 64.1483C63.5814 64.4199 63.6425 64.7502 63.575 65.0668C63.5076 65.3833 63.3172 65.6601 63.0457 65.8363ZM60.3401 59.0357C60.0346 59.1423 59.6993 59.1233 59.4079 58.9827C59.1165 58.8422 58.8928 58.5916 58.7861 58.2862C58.6795 57.9807 58.6985 57.6454 58.8391 57.354C58.9797 57.0626 59.2302 56.8389 59.5357 56.7322C62.1487 55.8077 64.4109 54.0959 66.0109 51.8326C67.6109 49.5692 68.4701 46.8656 68.4701 44.0938C68.4701 41.322 67.6109 38.6184 66.0109 36.3551C64.4109 34.0917 62.1487 32.3799 59.5357 31.4554C59.2302 31.3487 58.9797 31.1251 58.8391 30.8337C58.6985 30.5422 58.6795 30.2069 58.7861 29.9015C58.8928 29.596 59.1165 29.3454 59.4079 29.2049C59.6993 29.0643 60.0346 29.0453 60.3401 29.1519C63.432 30.2423 66.1095 32.265 68.0035 34.9412C69.8975 37.6174 70.9146 40.8152 70.9146 44.0938C70.9146 47.3724 69.8975 50.5702 68.0035 53.2464C66.1095 55.9226 63.432 57.9453 60.3401 59.0357Z" fill="#3E06DE"/>
<path d="M53.8441 36.7813H44.6669C45.5153 35.8328 46.1014 34.6793 46.3673 33.4348C46.6333 32.1903 46.5699 30.898 46.1833 29.6856C45.7968 28.4732 45.1006 27.3826 44.1635 26.5216C43.2264 25.6607 42.0808 25.0592 40.8401 24.7766C41.7348 23.8424 42.3657 22.6875 42.6684 21.4298C42.9711 20.1721 42.9347 18.8566 42.563 17.6176C42.1912 16.3785 41.4975 15.2603 40.5525 14.3769C39.6075 13.4935 38.4451 12.8766 37.1838 12.5891C38.1746 11.5546 38.8397 10.2518 39.0966 8.84251C39.3534 7.43324 39.1907 5.97957 38.6286 4.66198C38.0665 3.34438 37.1298 2.22089 35.9348 1.431C34.7398 0.641105 33.3391 0.219599 31.9066 0.218811H6.31287C5.51262 0.218811 4.72022 0.376431 3.98089 0.68267C3.24156 0.98891 2.56979 1.43777 2.00393 2.00363C0.861134 3.14643 0.219116 4.6964 0.219116 6.31256V45.3126C0.219116 46.9287 0.861134 48.4787 2.00393 49.6215C3.14673 50.7643 4.6967 51.4063 6.31287 51.4063H53.8441C55.7835 51.4063 57.6435 50.6359 59.0148 49.2645C60.3862 47.8932 61.1566 46.0332 61.1566 44.0938C61.1566 42.1544 60.3862 40.2945 59.0148 38.9231C57.6435 37.5517 55.7835 36.7813 53.8441 36.7813ZM53.8441 48.9688H6.31287C5.34317 48.9688 4.41319 48.5836 3.72751 47.8979C3.04183 47.2122 2.65662 46.2823 2.65662 45.3126V6.31256C2.65662 5.34286 3.04183 4.41288 3.72751 3.7272C4.41319 3.04152 5.34317 2.65631 6.31287 2.65631H31.9066C33.1995 2.65631 34.4395 3.16993 35.3538 4.08417C36.268 4.9984 36.7816 6.23838 36.7816 7.53131C36.7816 8.82424 36.268 10.0642 35.3538 10.9785C34.4395 11.8927 33.1995 12.4063 31.9066 12.4063H30.6879C30.3646 12.4063 30.0546 12.5347 29.8261 12.7633C29.5975 12.9918 29.4691 13.3018 29.4691 13.6251C29.4691 13.9483 29.5975 14.2583 29.8261 14.4868C30.0546 14.7154 30.3646 14.8438 30.6879 14.8438H35.5629C36.8558 14.8438 38.0958 15.3574 39.01 16.2717C39.9243 17.1859 40.4379 18.4259 40.4379 19.7188C40.4379 21.0117 39.9243 22.2517 39.01 23.166C38.0958 24.0802 36.8558 24.5938 35.5629 24.5938H30.6879C30.3646 24.5938 30.0546 24.7222 29.8261 24.9508C29.5975 25.1793 29.4691 25.4893 29.4691 25.8126C29.4691 26.1358 29.5975 26.4458 29.8261 26.6743C30.0546 26.9029 30.3646 27.0313 30.6879 27.0313H39.2191C40.512 27.0313 41.752 27.5449 42.6663 28.4592C43.5805 29.3734 44.0941 30.6134 44.0941 31.9063C44.0941 33.1992 43.5805 34.4392 42.6663 35.3535C41.752 36.2677 40.512 36.7813 39.2191 36.7813H30.6879C30.3646 36.7813 30.0546 36.9097 29.8261 37.1383C29.5975 37.3668 29.4691 37.6768 29.4691 38.0001C29.4691 38.3233 29.5975 38.6333 29.8261 38.8618C30.0546 39.0904 30.3646 39.2188 30.6879 39.2188H53.8441C55.137 39.2188 56.377 39.7324 57.2913 40.6467C58.2055 41.5609 58.7191 42.8009 58.7191 44.0938C58.7191 45.3867 58.2055 46.6267 57.2913 47.541C56.377 48.4552 55.137 48.9688 53.8441 48.9688Z" fill="#20DDF5"/>
<path d="M12.4066 5.09381H8.75037C7.78067 5.09381 6.85069 5.47902 6.16501 6.1647C5.47933 6.85038 5.09412 7.78036 5.09412 8.75006V12.4063C5.09412 12.7295 5.22252 13.0395 5.45108 13.2681C5.67964 13.4967 5.98963 13.6251 6.31287 13.6251C6.6361 13.6251 6.94609 13.4967 7.17465 13.2681C7.40321 13.0395 7.53162 12.7295 7.53162 12.4063V8.75006C7.53162 8.42683 7.66002 8.11683 7.88858 7.88827C8.11714 7.65971 8.42713 7.53131 8.75037 7.53131H12.4066C12.7298 7.53131 13.0398 7.40291 13.2684 7.17435C13.497 6.94579 13.6254 6.63579 13.6254 6.31256C13.6254 5.98933 13.497 5.67933 13.2684 5.45077C13.0398 5.22221 12.7298 5.09381 12.4066 5.09381Z" fill="#FFBA09"/>
</svg>
