<svg width="170" height="38" viewBox="0 0 170 38" fill="none" xmlns="http://www.w3.org/2000/svg">
<path d="M5.48438 28.7695C5.48438 29.7539 5.0625 30.2461 4.21875 30.2461C3.375 30.2461 2.95312 29.7539 2.95312 28.7695V8.90625C2.95312 7.89844 3.35156 7.39453 4.14844 7.39453C5.03906 7.39453 5.48438 7.89844 5.48438 8.90625V16.6758H18.1406V8.90625C18.1406 7.89844 18.5508 7.39453 19.3711 7.39453C20.2383 7.39453 20.6719 7.89844 20.6719 8.90625V28.7695C20.6719 29.7539 20.2617 30.2461 19.4414 30.2461C18.5742 30.2461 18.1406 29.7539 18.1406 28.7695V19.207H5.48438V28.7695ZM44.8594 32.707C44.8594 34.3242 44.6016 35.4727 44.0859 36.1523C43.5938 36.8555 42.668 37.207 41.3086 37.207H29.9531C28.4297 37.207 27.3984 36.8086 26.8594 36.0117C26.3438 35.2383 26.0859 34.207 26.0859 32.918C26.0859 31.8633 26.5078 31.3359 27.3516 31.3359C28.1953 31.3359 28.6172 31.8398 28.6172 32.8477C28.6172 33.5508 28.7227 34.0312 28.9336 34.2891C29.1445 34.5469 29.5664 34.6758 30.1992 34.6758H41.0625C41.6016 34.6758 41.9414 34.582 42.082 34.3945C42.2461 34.2305 42.3281 33.8555 42.3281 33.2695V28.2422C40.875 29.4141 38.7539 30 35.9648 30H34.9453C31.8047 30 29.543 29.5781 28.1602 28.7344C26.7773 27.8672 26.0859 26.2031 26.0859 23.7422V15.0234C26.0859 14.0391 26.4961 13.5469 27.3164 13.5469C28.1836 13.5469 28.6172 14.0391 28.6172 15.0234V23.6367C28.6172 25.3242 29.0156 26.3906 29.8125 26.8359C30.6328 27.2578 32.3438 27.4688 34.9453 27.4688H35.9648C40.207 27.4688 42.3281 25.5938 42.3281 21.8438V15.0234C42.3281 14.0391 42.75 13.5469 43.5938 13.5469C44.4375 13.5469 44.8594 14.0391 44.8594 15.0234V32.707ZM50.0625 14.5312C50.0625 13.9922 50.1914 13.6055 50.4492 13.3711C50.707 13.1367 51 13.0195 51.3281 13.0195C51.6562 13.0195 51.9492 13.1367 52.207 13.3711C52.4648 13.6055 52.5938 13.9922 52.5938 14.5312V29.2969C52.5938 30.2812 52.1602 30.7734 51.293 30.7734C50.9648 30.7734 50.6719 30.6562 50.4141 30.4219C50.1797 30.2109 50.0625 29.8359 50.0625 29.2969V14.5312ZM52.7344 10.1719C52.2656 10.5 51.7969 10.6641 51.3281 10.6641C50.8594 10.6641 50.3789 10.5 49.8867 10.1719C49.418 9.82031 49.1836 9.38672 49.1836 8.87109C49.1836 8.35547 49.4062 7.93359 49.8516 7.60547C50.3203 7.25391 50.8125 7.07812 51.3281 7.07812C51.7969 7.07812 52.2656 7.25391 52.7344 7.60547C53.2266 7.93359 53.4727 8.35547 53.4727 8.87109C53.4727 9.38672 53.2266 9.82031 52.7344 10.1719ZM74.0391 20.1562C74.0391 18.4688 73.6289 17.4141 72.8086 16.9922C72.0117 16.5469 70.3125 16.3242 67.7109 16.3242H66.6914C64.3008 16.3242 62.6367 16.8281 61.6992 17.8359C60.7852 18.8203 60.3281 20.1562 60.3281 21.8438V27.4688H67.8164C70.3711 27.4688 72.0469 27.2578 72.8438 26.8359C73.6406 26.3906 74.0391 25.3242 74.0391 23.6367V20.1562ZM76.5703 23.7422C76.5703 26.2031 75.8789 27.8672 74.4961 28.7344C73.1367 29.5781 70.9102 30 67.8164 30H60.3281V34.8164C60.3281 35.8711 59.8828 36.3984 58.9922 36.3984C58.1953 36.3984 57.7969 35.8711 57.7969 34.8164V15.0234C57.7969 14.0391 58.2188 13.5469 59.0625 13.5469C59.9062 13.5469 60.3281 14.0742 60.3281 15.1289V15.5508C61.7812 14.3789 63.9023 13.793 66.6914 13.793H67.7109C70.8516 13.793 73.1133 14.2266 74.4961 15.0938C75.8789 15.9375 76.5703 17.5898 76.5703 20.0508V23.7422Z" fill="white"/>
<path d="M84.1912 30C83.3943 30 82.9959 29.4961 82.9959 28.4883V8.80078C82.9959 8.30859 83.1248 7.95703 83.3826 7.74609C83.6404 7.51172 83.9334 7.39453 84.2615 7.39453C84.5896 7.39453 84.8826 7.51172 85.1404 7.74609C85.3982 7.95703 85.5271 8.30859 85.5271 8.80078V27.4688H97.2342C98.242 27.4688 98.7459 27.9023 98.7459 28.7695C98.7459 29.5898 98.242 30 97.2342 30H84.1912ZM110.558 19.2773H115.375V17.8008C115.375 17.2148 115.269 16.8281 115.058 16.6406C114.847 16.4297 114.426 16.3242 113.793 16.3242H108.836C107.008 16.3242 105.777 16.4297 105.144 16.6406C104.512 16.8281 104.195 17.1797 104.195 17.6953C104.195 18.75 103.762 19.2773 102.894 19.2773C102.074 19.2773 101.664 18.75 101.664 17.6953C101.664 16.2188 102.25 15.1992 103.422 14.6367C104.617 14.0742 106.34 13.793 108.59 13.793H114.039C115.539 13.793 116.558 14.1445 117.097 14.8477C117.637 15.5508 117.906 16.7227 117.906 18.3633V28.7695C117.906 29.7539 117.484 30.2461 116.64 30.2461C115.797 30.2461 115.375 29.7188 115.375 28.6641V28.2422C113.969 29.4141 111.859 30 109.047 30H105.777C104.582 30 103.597 29.5898 102.824 28.7695C102.051 27.9492 101.664 26.8477 101.664 25.4648C101.664 23.0742 102.367 21.4453 103.773 20.5781C105.203 19.7109 107.465 19.2773 110.558 19.2773ZM115.375 21.8086H110.558C107.933 21.8086 106.211 22.0312 105.39 22.4766C104.594 22.8984 104.195 23.9531 104.195 25.6406C104.195 26.1328 104.371 26.5664 104.722 26.9414C105.074 27.293 105.426 27.4688 105.777 27.4688H109.047C110.406 27.4688 111.543 27.293 112.457 26.9414C113.371 26.5898 114.015 26.0977 114.39 25.4648C114.789 24.832 115.047 24.2461 115.164 23.707C115.304 23.168 115.375 22.5352 115.375 21.8086ZM125.57 15.5508C127.023 14.3789 129.144 13.793 131.933 13.793H132.953C136.094 13.793 138.355 14.2266 139.738 15.0938C141.121 15.9375 141.812 17.5898 141.812 20.0508V23.7422C141.812 26.2031 141.121 27.8672 139.738 28.7344C138.355 29.5781 136.094 30 132.953 30H131.933C129.144 30 127.023 29.4141 125.57 28.2422V28.6641C125.57 29.7188 125.148 30.2461 124.304 30.2461C123.461 30.2461 123.039 29.7539 123.039 28.7695V9.01172C123.039 7.93359 123.437 7.39453 124.234 7.39453C125.125 7.39453 125.57 7.93359 125.57 9.01172V15.5508ZM131.933 16.3242C129.543 16.3242 127.879 16.8281 126.941 17.8359C126.027 18.8203 125.57 20.1562 125.57 21.8438V21.9844C125.57 23.6484 126.039 24.9844 126.976 25.9922C127.914 26.9766 129.566 27.4688 131.933 27.4688H132.953C135.554 27.4688 137.254 27.2578 138.051 26.8359C138.871 26.3906 139.281 25.3242 139.281 23.6367V20.1562C139.281 18.4688 138.871 17.4141 138.051 16.9922C137.254 16.5469 135.554 16.3242 132.953 16.3242H131.933Z" fill="#20DDF5"/>
</svg>
