<svg width="78" height="78" viewBox="0 0 78 78" fill="none" xmlns="http://www.w3.org/2000/svg">
<path d="M68.2503 59.7188C66.4127 59.724 64.626 60.3225 63.1559 61.425L53.1378 51.4069C54.2451 49.9393 54.8441 48.151 54.8441 46.3125C54.8441 44.4741 54.2451 42.6857 53.1378 41.2182L63.1559 31.2C64.8837 32.4904 67.036 33.0785 69.1799 32.8462C71.3238 32.6138 73.3002 31.5782 74.7114 29.9477C76.1226 28.3172 76.864 26.2127 76.7865 24.0577C76.7089 21.9026 75.8181 19.8569 74.2932 18.3321C72.7684 16.8073 70.7227 15.9165 68.5677 15.8389C66.4126 15.7613 64.3082 16.5027 62.6776 17.9139C61.0471 19.3252 60.0115 21.3015 59.7792 23.4454C59.5468 25.5893 60.135 27.7416 61.4253 29.4694L51.4072 39.4875C49.9396 38.3802 48.1512 37.7812 46.3128 37.7812C44.4744 37.7812 42.686 38.3802 41.2184 39.4875L31.2003 29.4694C32.4906 27.7416 33.0788 25.5893 32.8465 23.4454C32.6141 21.3015 31.5785 19.3252 29.948 17.9139C28.3175 16.5027 26.213 15.7613 24.0579 15.8389C21.9029 15.9165 19.8572 16.8073 18.3324 18.3321C16.8075 19.8569 15.9167 21.9026 15.8391 24.0577C15.7616 26.2127 16.503 28.3172 17.9142 29.9477C19.3254 31.5782 21.3018 32.6138 23.4457 32.8462C25.5896 33.0785 27.7419 32.4904 29.4697 31.2L39.4878 41.2182C38.3805 42.6857 37.7815 44.4741 37.7815 46.3125C37.7815 48.151 38.3805 49.9393 39.4878 51.4069L29.4697 61.425C27.7419 60.1347 25.5896 59.5465 23.4457 59.7789C21.3018 60.0112 19.3254 61.0468 17.9142 62.6773C16.503 64.3079 15.7616 66.4123 15.8391 68.5674C15.9167 70.7224 16.8075 72.7681 18.3324 74.293C19.8572 75.8178 21.9029 76.7086 24.0579 76.7862C26.213 76.8638 28.3175 76.1224 29.948 74.7111C31.5785 73.2999 32.6141 71.3235 32.8465 69.1796C33.0788 67.0358 32.4906 64.8834 31.2003 63.1557L41.2184 53.1375C42.686 54.2448 44.4744 54.8438 46.3128 54.8438C48.1512 54.8438 49.9396 54.2448 51.4072 53.1375L61.4253 63.1557C60.278 64.6968 59.6845 66.5801 59.741 68.5006C59.7974 70.4211 60.5004 72.2663 61.7362 73.7374C62.972 75.2085 64.6682 76.2194 66.5502 76.6064C68.4321 76.9934 70.3896 76.7338 72.1056 75.8697C73.8216 75.0055 75.1957 73.5875 76.0053 71.8451C76.8149 70.1027 77.0127 68.138 76.5666 66.2692C76.1206 64.4004 75.0567 62.7369 73.5474 61.5481C72.038 60.3592 70.1716 59.7147 68.2503 59.7188Z" fill="#3E06DE"/>
<path d="M58.5005 1.21877H53.6255C52.6558 1.21877 51.7258 1.60398 51.0401 2.28966C50.3545 2.97534 49.9692 3.90532 49.9692 4.87502V6.09377H48.1411C47.8179 6.09377 47.5079 6.22217 47.2793 6.45073C47.0508 6.67929 46.9224 6.98928 46.9224 7.31252C46.9224 7.63575 47.0508 7.94574 47.2793 8.1743C47.5079 8.40286 47.8179 8.53127 48.1411 8.53127H49.9692V9.75002C49.9692 10.7197 50.3545 11.6497 51.0401 12.3354C51.7258 13.0211 52.6558 13.4063 53.6255 13.4063H54.8442V15.2344C54.8442 15.5576 54.9726 15.8676 55.2012 16.0962C55.4298 16.3247 55.7398 16.4531 56.063 16.4531C56.3862 16.4531 56.6962 16.3247 56.9248 16.0962C57.1533 15.8676 57.2817 15.5576 57.2817 15.2344V13.4063H58.5005C59.4702 13.4063 60.4002 13.0211 61.0858 12.3354C61.7715 11.6497 62.1567 10.7197 62.1567 9.75002V4.87502C62.1567 3.90532 61.7715 2.97534 61.0858 2.28966C60.4002 1.60398 59.4702 1.21877 58.5005 1.21877ZM59.7192 9.75002C59.7192 10.0732 59.5908 10.3832 59.3623 10.6118C59.1337 10.8404 58.8237 10.9688 58.5005 10.9688H53.6255C53.3023 10.9688 52.9923 10.8404 52.7637 10.6118C52.5351 10.3832 52.4067 10.0732 52.4067 9.75002V4.87502C52.4067 4.55178 52.5351 4.24179 52.7637 4.01323C52.9923 3.78467 53.3023 3.65627 53.6255 3.65627H58.5005C58.8237 3.65627 59.1337 3.78467 59.3623 4.01323C59.5908 4.24179 59.7192 4.55178 59.7192 4.87502V9.75002Z" fill="#20DDF5"/>
<path d="M58.5005 49.9688H57.2817V48.1406C57.2817 47.8174 57.1533 47.5074 56.9248 47.2789C56.6962 47.0503 56.3862 46.9219 56.063 46.9219C55.7398 46.9219 55.4298 47.0503 55.2012 47.2789C54.9726 47.5074 54.8442 47.8174 54.8442 48.1406V49.9688H53.6255C52.6558 49.9688 51.7258 50.354 51.0401 51.0397C50.3545 51.7253 49.9692 52.6553 49.9692 53.625V54.8438H48.1411C47.8179 54.8438 47.5079 54.9722 47.2793 55.2007C47.0508 55.4293 46.9224 55.7393 46.9224 56.0625C46.9224 56.3857 47.0508 56.6957 47.2793 56.9243C47.5079 57.1529 47.8179 57.2813 48.1411 57.2813H49.9692V58.5C49.9692 59.4697 50.3545 60.3997 51.0401 61.0854C51.7258 61.7711 52.6558 62.1563 53.6255 62.1563H58.5005C59.4702 62.1563 60.4002 61.7711 61.0858 61.0854C61.7715 60.3997 62.1567 59.4697 62.1567 58.5V53.625C62.1567 52.6553 61.7715 51.7253 61.0858 51.0397C60.4002 50.354 59.4702 49.9688 58.5005 49.9688ZM59.7192 58.5C59.7192 58.8232 59.5908 59.1332 59.3623 59.3618C59.1337 59.5904 58.8237 59.7188 58.5005 59.7188H53.6255C53.3023 59.7188 52.9923 59.5904 52.7637 59.3618C52.5351 59.1332 52.4067 58.8232 52.4067 58.5V53.625C52.4067 53.3018 52.5351 52.9918 52.7637 52.7632C52.9923 52.5347 53.3023 52.4063 53.6255 52.4063H58.5005C58.8237 52.4063 59.1337 52.5347 59.3623 52.7632C59.5908 52.9918 59.7192 53.3018 59.7192 53.625V58.5Z" fill="#20DDF5"/>
<path d="M15.2349 6.09377H13.4067V4.87502C13.4067 3.90532 13.0215 2.97534 12.3358 2.28966C11.6502 1.60398 10.7202 1.21877 9.75049 1.21877H4.87549C3.90579 1.21877 2.97581 1.60398 2.29013 2.28966C1.60445 2.97534 1.21924 3.90532 1.21924 4.87502V9.75002C1.21924 10.7197 1.60445 11.6497 2.29013 12.3354C2.97581 13.0211 3.90579 13.4063 4.87549 13.4063H6.09424V15.2344C6.09424 15.5576 6.22264 15.8676 6.4512 16.0962C6.67976 16.3247 6.98976 16.4531 7.31299 16.4531C7.63622 16.4531 7.94621 16.3247 8.17477 16.0962C8.40333 15.8676 8.53174 15.5576 8.53174 15.2344V13.4063H9.75049C10.7202 13.4063 11.6502 13.0211 12.3358 12.3354C13.0215 11.6497 13.4067 10.7197 13.4067 9.75002V8.53127H15.2349C15.5581 8.53127 15.8681 8.40286 16.0966 8.1743C16.3252 7.94574 16.4536 7.63575 16.4536 7.31252C16.4536 6.98928 16.3252 6.67929 16.0966 6.45073C15.8681 6.22217 15.5581 6.09377 15.2349 6.09377ZM10.9692 9.75002C10.9692 10.0732 10.8408 10.3832 10.6123 10.6118C10.3837 10.8404 10.0737 10.9688 9.75049 10.9688H4.87549C4.55226 10.9688 4.24226 10.8404 4.0137 10.6118C3.78514 10.3832 3.65674 10.0732 3.65674 9.75002V4.87502C3.65674 4.55178 3.78514 4.24179 4.0137 4.01323C4.24226 3.78467 4.55226 3.65627 4.87549 3.65627H9.75049C10.0737 3.65627 10.3837 3.78467 10.6123 4.01323C10.8408 4.24179 10.9692 4.55178 10.9692 4.87502V9.75002Z" fill="#20DDF5"/>
<path d="M21.8159 8.53127H28.3972C28.7204 8.53127 29.0304 8.40286 29.259 8.1743C29.4875 7.94574 29.6159 7.63575 29.6159 7.31252C29.6159 6.98928 29.4875 6.67929 29.259 6.45073C29.0304 6.22217 28.7204 6.09377 28.3972 6.09377H21.8159C21.4927 6.09377 21.1827 6.22217 20.9541 6.45073C20.7256 6.67929 20.5972 6.98928 20.5972 7.31252C20.5972 7.63575 20.7256 7.94574 20.9541 8.1743C21.1827 8.40286 21.4927 8.53127 21.8159 8.53127Z" fill="#20DDF5"/>
<path d="M34.979 8.53127H41.5602C41.8835 8.53127 42.1935 8.40286 42.422 8.1743C42.6506 7.94574 42.779 7.63575 42.779 7.31252C42.779 6.98928 42.6506 6.67929 42.422 6.45073C42.1935 6.22217 41.8835 6.09377 41.5602 6.09377H34.979C34.6558 6.09377 34.3458 6.22217 34.1172 6.45073C33.8887 6.67929 33.7603 6.98928 33.7603 7.31252C33.7603 7.63575 33.8887 7.94574 34.1172 8.1743C34.3458 8.40286 34.6558 8.53127 34.979 8.53127Z" fill="#20DDF5"/>
<path d="M15.2349 54.8438H13.4067V53.625C13.4067 52.6553 13.0215 51.7253 12.3358 51.0397C11.6502 50.354 10.7202 49.9688 9.75049 49.9688H8.53174V48.1406C8.53174 47.8174 8.40333 47.5074 8.17477 47.2789C7.94621 47.0503 7.63622 46.9219 7.31299 46.9219C6.98976 46.9219 6.67976 47.0503 6.4512 47.2789C6.22264 47.5074 6.09424 47.8174 6.09424 48.1406V49.9688H4.87549C3.90579 49.9688 2.97581 50.354 2.29013 51.0397C1.60445 51.7253 1.21924 52.6553 1.21924 53.625V58.5C1.21924 59.4697 1.60445 60.3997 2.29013 61.0854C2.97581 61.7711 3.90579 62.1563 4.87549 62.1563H9.75049C10.7202 62.1563 11.6502 61.7711 12.3358 61.0854C13.0215 60.3997 13.4067 59.4697 13.4067 58.5V57.2813H15.2349C15.5581 57.2813 15.8681 57.1529 16.0966 56.9243C16.3252 56.6957 16.4536 56.3857 16.4536 56.0625C16.4536 55.7393 16.3252 55.4293 16.0966 55.2007C15.8681 54.9722 15.5581 54.8438 15.2349 54.8438ZM10.9692 58.5C10.9692 58.8232 10.8408 59.1332 10.6123 59.3618C10.3837 59.5904 10.0737 59.7188 9.75049 59.7188H4.87549C4.55226 59.7188 4.24226 59.5904 4.0137 59.3618C3.78514 59.1332 3.65674 58.8232 3.65674 58.5V53.625C3.65674 53.3018 3.78514 52.9918 4.0137 52.7632C4.24226 52.5347 4.55226 52.4063 4.87549 52.4063H9.75049C10.0737 52.4063 10.3837 52.5347 10.6123 52.7632C10.8408 52.9918 10.9692 53.3018 10.9692 53.625V58.5Z" fill="#20DDF5"/>
<path d="M28.3972 54.8438H21.8159C21.4927 54.8438 21.1827 54.9722 20.9541 55.2007C20.7256 55.4293 20.5972 55.7393 20.5972 56.0625C20.5972 56.3857 20.7256 56.6957 20.9541 56.9243C21.1827 57.1529 21.4927 57.2813 21.8159 57.2813H28.3972C28.7204 57.2813 29.0304 57.1529 29.259 56.9243C29.4875 56.6957 29.6159 56.3857 29.6159 56.0625C29.6159 55.7393 29.4875 55.4293 29.259 55.2007C29.0304 54.9722 28.7204 54.8438 28.3972 54.8438Z" fill="#20DDF5"/>
<path d="M41.5602 54.8438H34.979C34.6558 54.8438 34.3458 54.9722 34.1172 55.2007C33.8887 55.4293 33.7603 55.7393 33.7603 56.0625C33.7603 56.3857 33.8887 56.6957 34.1172 56.9243C34.3458 57.1529 34.6558 57.2813 34.979 57.2813H41.5602C41.8835 57.2813 42.1935 57.1529 42.422 56.9243C42.6506 56.6957 42.779 56.3857 42.779 56.0625C42.779 55.7393 42.6506 55.4293 42.422 55.2007C42.1935 54.9722 41.8835 54.8438 41.5602 54.8438Z" fill="#20DDF5"/>
<path d="M7.31299 29.6156C7.63622 29.6156 7.94621 29.4872 8.17477 29.2587C8.40333 29.0301 8.53174 28.7201 8.53174 28.3969V21.8156C8.53174 21.4924 8.40333 21.1824 8.17477 20.9538C7.94621 20.7253 7.63622 20.5969 7.31299 20.5969C6.98976 20.5969 6.67976 20.7253 6.4512 20.9538C6.22264 21.1824 6.09424 21.4924 6.09424 21.8156V28.3969C6.09424 28.7201 6.22264 29.0301 6.4512 29.2587C6.67976 29.4872 6.98976 29.6156 7.31299 29.6156Z" fill="#20DDF5"/>
<path d="M6.09424 41.5594C6.09424 41.8826 6.22264 42.1926 6.4512 42.4212C6.67976 42.6498 6.98976 42.7782 7.31299 42.7782C7.63622 42.7782 7.94621 42.6498 8.17477 42.4212C8.40333 42.1926 8.53174 41.8826 8.53174 41.5594V34.9782C8.53174 34.6549 8.40333 34.3449 8.17477 34.1164C7.94621 33.8878 7.63622 33.7594 7.31299 33.7594C6.98976 33.7594 6.67976 33.8878 6.4512 34.1164C6.22264 34.3449 6.09424 34.6549 6.09424 34.9782V41.5594Z" fill="#20DDF5"/>
<path d="M56.063 29.6156C56.3862 29.6156 56.6962 29.4872 56.9248 29.2587C57.1533 29.0301 57.2817 28.7201 57.2817 28.3969V21.8156C57.2817 21.4924 57.1533 21.1824 56.9248 20.9538C56.6962 20.7253 56.3862 20.5969 56.063 20.5969C55.7398 20.5969 55.4298 20.7253 55.2012 20.9538C54.9726 21.1824 54.8442 21.4924 54.8442 21.8156V28.3969C54.8442 28.7201 54.9726 29.0301 55.2012 29.2587C55.4298 29.4872 55.7398 29.6156 56.063 29.6156Z" fill="#20DDF5"/>
<path d="M54.8442 41.5594C54.8442 41.8826 54.9726 42.1926 55.2012 42.4212C55.4298 42.6498 55.7398 42.7782 56.063 42.7782C56.3862 42.7782 56.6962 42.6498 56.9248 42.4212C57.1533 42.1926 57.2817 41.8826 57.2817 41.5594V34.9782C57.2817 34.6549 57.1533 34.3449 56.9248 34.1164C56.6962 33.8878 56.3862 33.7594 56.063 33.7594C55.7398 33.7594 55.4298 33.8878 55.2012 34.1164C54.9726 34.3449 54.8442 34.6549 54.8442 34.9782V41.5594Z" fill="#20DDF5"/>
<path d="M31.688 17.0625C28.7954 17.0625 25.9678 17.9203 23.5628 19.5273C21.1577 21.1343 19.2832 23.4184 18.1763 26.0908C17.0693 28.7631 16.7797 31.7037 17.344 34.5407C17.9083 37.3777 19.3012 39.9836 21.3466 42.0289C23.3919 44.0743 25.9978 45.4672 28.8348 46.0315C31.6718 46.5958 34.6124 46.3062 37.2847 45.1992C39.9571 44.0923 42.2412 42.2178 43.8482 39.8127C45.4552 37.4077 46.313 34.5801 46.313 31.6875C46.313 27.8087 44.7721 24.0888 42.0294 21.3461C39.2867 18.6034 35.5668 17.0625 31.688 17.0625ZM40.6336 37.7813H22.7424L31.688 20.8894L40.6336 37.7813ZM29.5552 19.695L20.573 36.6722C19.8166 34.9824 19.4551 33.1425 19.516 31.2922C19.5768 29.4419 20.0584 27.6297 20.9242 25.9933C21.79 24.3569 23.0172 22.9392 24.5127 21.8479C26.0082 20.7566 27.7327 20.0203 29.5552 19.695ZM31.688 43.875C30.0693 43.8732 28.4673 43.5489 26.9753 42.9211C25.4833 42.2934 24.1314 41.3747 22.9983 40.2188H40.3777C39.2446 41.3747 37.8926 42.2934 36.4007 42.9211C34.9087 43.5489 33.3066 43.8732 31.688 43.875ZM42.803 36.6722L33.8208 19.695C35.6433 20.0203 37.3678 20.7566 38.8633 21.8479C40.3588 22.9392 41.586 24.3569 42.4517 25.9933C43.3175 27.6297 43.7991 29.4419 43.86 31.2922C43.9208 33.1425 43.5594 34.9824 42.803 36.6722Z" fill="#FFC225"/>
</svg>
