<svg width="78" height="78" viewBox="0 0 78 78" fill="none" xmlns="http://www.w3.org/2000/svg">
<path d="M29.25 68.25C27.9571 68.25 26.7171 67.7364 25.8029 66.8221C24.8886 65.9079 24.375 64.6679 24.375 63.375C24.375 63.0518 24.2466 62.7418 24.018 62.5132C23.7895 62.2847 23.4795 62.1562 23.1562 62.1562C22.833 62.1562 22.523 62.2847 22.2945 62.5132C22.0659 62.7418 21.9375 63.0518 21.9375 63.375C21.9375 64.6679 21.4239 65.9079 20.5096 66.8221C19.5954 67.7364 18.3554 68.25 17.0625 68.25C16.7393 68.25 16.4293 68.3784 16.2007 68.607C15.9722 68.8355 15.8438 69.1455 15.8438 69.4688C15.8438 69.792 15.9722 70.102 16.2007 70.3305C16.4293 70.5591 16.7393 70.6875 17.0625 70.6875C18.3554 70.6875 19.5954 71.2011 20.5096 72.1154C21.4239 73.0296 21.9375 74.2696 21.9375 75.5625C21.9375 75.8857 22.0659 76.1957 22.2945 76.4243C22.523 76.6528 22.833 76.7812 23.1562 76.7812C23.4795 76.7812 23.7895 76.6528 24.018 76.4243C24.2466 76.1957 24.375 75.8857 24.375 75.5625C24.375 74.2696 24.8886 73.0296 25.8029 72.1154C26.7171 71.2011 27.9571 70.6875 29.25 70.6875C29.5732 70.6875 29.8832 70.5591 30.1118 70.3305C30.3403 70.102 30.4688 69.792 30.4688 69.4688C30.4688 69.1455 30.3403 68.8355 30.1118 68.607C29.8832 68.3784 29.5732 68.25 29.25 68.25Z" fill="#FB7D08"/>
<path d="M63.375 24.375C64.6679 24.375 65.9079 24.8886 66.8221 25.8029C67.7364 26.7171 68.25 27.9571 68.25 29.25C68.25 29.5732 68.3784 29.8832 68.607 30.1118C68.8355 30.3403 69.1455 30.4688 69.4688 30.4688C69.792 30.4688 70.102 30.3403 70.3305 30.1118C70.5591 29.8832 70.6875 29.5732 70.6875 29.25C70.6875 27.9571 71.2011 26.7171 72.1154 25.8029C73.0296 24.8886 74.2696 24.375 75.5625 24.375C75.8857 24.375 76.1957 24.2466 76.4243 24.018C76.6528 23.7895 76.7812 23.4795 76.7812 23.1562C76.7812 22.833 76.6528 22.523 76.4243 22.2945C76.1957 22.0659 75.8857 21.9375 75.5625 21.9375C74.2696 21.9375 73.0296 21.4239 72.1154 20.5096C71.2011 19.5954 70.6875 18.3554 70.6875 17.0625C70.6875 16.7393 70.5591 16.4293 70.3305 16.2007C70.102 15.9722 69.792 15.8438 69.4688 15.8438C69.1455 15.8438 68.8355 15.9722 68.607 16.2007C68.3784 16.4293 68.25 16.7393 68.25 17.0625C68.25 18.3554 67.7364 19.5954 66.8221 20.5096C65.9079 21.4239 64.6679 21.9375 63.375 21.9375C63.0518 21.9375 62.7418 22.0659 62.5132 22.2945C62.2847 22.523 62.1562 22.833 62.1562 23.1562C62.1562 23.4795 62.2847 23.7895 62.5132 24.018C62.7418 24.2466 63.0518 24.375 63.375 24.375Z" fill="#FB7D08"/>
<path d="M17.0625 28.0312C19.3243 28.0338 21.4928 28.9335 23.0922 30.5328C24.6915 32.1322 25.5912 34.3007 25.5938 36.5625C25.5938 36.8857 25.7222 37.1957 25.9507 37.4243C26.1793 37.6528 26.4893 37.7812 26.8125 37.7812C27.1357 37.7812 27.4457 37.6528 27.6743 37.4243C27.9028 37.1957 28.0312 36.8857 28.0312 36.5625C28.0338 34.3007 28.9335 32.1322 30.5328 30.5328C32.1322 28.9335 34.3007 28.0338 36.5625 28.0312C36.8857 28.0312 37.1957 27.9028 37.4243 27.6743C37.6528 27.4457 37.7812 27.1357 37.7812 26.8125C37.7812 26.4893 37.6528 26.1793 37.4243 25.9507C37.1957 25.7222 36.8857 25.5938 36.5625 25.5938C34.3007 25.5912 32.1322 24.6915 30.5328 23.0922C28.9335 21.4928 28.0338 19.3243 28.0312 17.0625C28.0312 16.7393 27.9028 16.4293 27.6743 16.2007C27.4457 15.9722 27.1357 15.8438 26.8125 15.8438C26.4893 15.8438 26.1793 15.9722 25.9507 16.2007C25.7222 16.4293 25.5938 16.7393 25.5938 17.0625C25.5912 19.3243 24.6915 21.4928 23.0922 23.0922C21.4928 24.6915 19.3243 25.5912 17.0625 25.5938C16.7393 25.5938 16.4293 25.7222 16.2007 25.9507C15.9722 26.1793 15.8438 26.4893 15.8438 26.8125C15.8438 27.1357 15.9722 27.4457 16.2007 27.6743C16.4293 27.9028 16.7393 28.0312 17.0625 28.0312Z" fill="#FB7D08"/>
<path d="M49.9421 47.4545C49.8425 47.8219 49.8442 48.2095 49.9472 48.576C50.0502 48.9426 50.2506 49.2743 50.5271 49.5361C50.8901 49.8131 51.2767 50.0578 51.6825 50.2673V45.3473C51.2332 45.5152 50.8359 45.7983 50.5305 46.1681C50.225 46.538 50.0221 46.9815 49.9421 47.4545Z" fill="#FB7D08"/>
<path d="M54.478 54.0601L54.1245 53.9382V60.5365C54.7687 60.3135 55.341 59.9212 55.7813 59.4008C56.2215 58.8803 56.5135 58.2509 56.6266 57.5786C56.7782 56.8293 56.6411 56.0503 56.2426 55.3978C55.8442 54.7453 55.2138 54.2675 54.478 54.0601Z" fill="#FB7D08"/>
<path d="M53.0156 37.3242C49.9122 37.3242 46.8784 38.2445 44.298 39.9687C41.7175 41.6929 39.7063 44.1436 38.5187 47.0108C37.331 49.878 37.0203 53.033 37.6257 56.0769C38.2312 59.1207 39.7256 61.9166 41.9201 64.1111C44.1146 66.3056 46.9106 67.8001 49.9544 68.4055C52.9982 69.011 56.1532 68.7002 59.0205 67.5126C61.8877 66.3249 64.3384 64.3137 66.0625 61.7333C67.7867 59.1529 68.707 56.1191 68.707 53.0156C68.7025 48.8554 67.0479 44.8668 64.1061 41.9251C61.1644 38.9834 57.1759 37.3287 53.0156 37.3242ZM59.0253 57.9771C58.824 59.2236 58.2461 60.3787 57.3692 61.2872C56.4923 62.1956 55.3584 62.8141 54.1198 63.0593V64.5937C54.1198 64.917 53.9914 65.227 53.7628 65.4555C53.5343 65.6841 53.2243 65.8125 52.9011 65.8125C52.5778 65.8125 52.2678 65.6841 52.0393 65.4555C51.8107 65.227 51.6823 64.917 51.6823 64.5937V63.1556C50.1657 63.0998 48.7001 62.5932 47.4728 61.7004C47.3388 61.6124 47.2235 61.4988 47.1334 61.3663C47.0433 61.2337 46.9802 61.0846 46.9478 60.9277C46.9153 60.7707 46.914 60.6089 46.9441 60.4514C46.9742 60.294 47.0349 60.144 47.123 60.01C47.211 59.8761 47.3246 59.7607 47.4571 59.6707C47.5897 59.5806 47.7388 59.5175 47.8957 59.485C48.0527 59.4526 48.2145 59.4513 48.372 59.4814C48.5294 59.5114 48.6794 59.5722 48.8134 59.6602C49.6441 60.2929 50.6448 60.6629 51.6872 60.723V52.9717C50.7415 52.5778 49.8482 52.0681 49.0279 51.4544C48.3974 50.9186 47.9262 50.2199 47.6657 49.4346C47.4052 48.6493 47.3654 47.8075 47.5508 47.0011C47.7102 46.0714 48.1225 45.2035 48.7425 44.4926C49.3625 43.7817 50.1662 43.2551 51.0656 42.9707C51.2765 42.9073 51.4812 42.8586 51.6835 42.8147V41.4375C51.6835 41.1143 51.8119 40.8043 52.0405 40.5757C52.2691 40.3472 52.5791 40.2187 52.9023 40.2187C53.2255 40.2187 53.5355 40.3472 53.7641 40.5757C53.9926 40.8043 54.121 41.1143 54.121 41.4375V42.7221C55.3368 42.8883 56.4817 43.3915 57.4263 44.1748C57.6581 44.3944 57.7945 44.6962 57.8061 45.0153C57.8178 45.3344 57.7037 45.6454 57.4884 45.8812C57.2731 46.1171 56.9739 46.2591 56.655 46.2766C56.3362 46.2941 56.0232 46.1858 55.7834 45.9749C55.297 45.5907 54.7279 45.3249 54.121 45.1986V51.3337C54.4867 51.4727 54.8657 51.6141 55.2862 51.7627C56.5655 52.156 57.6547 53.0077 58.3448 54.1545C59.0348 55.3014 59.2771 56.6626 59.0253 57.9771Z" fill="#FB7D08"/>
<path d="M53.0155 29.25C48.3151 29.25 43.7203 30.6438 39.812 33.2552C35.9038 35.8666 32.8577 39.5783 31.0589 43.9209C29.2602 48.2635 28.7895 53.042 29.7065 57.6521C30.6235 62.2621 32.887 66.4968 36.2107 69.8205C39.5344 73.1441 43.769 75.4076 48.3791 76.3246C52.9892 77.2416 57.7676 76.771 62.1102 74.9722C66.4528 73.1734 70.1645 70.1273 72.7759 66.2191C75.3873 62.3109 76.7811 57.716 76.7811 53.0156C76.7737 46.7149 74.2675 40.6743 69.8122 36.219C65.3568 31.7637 59.3163 29.2574 53.0155 29.25ZM53.0155 71.1445C49.43 71.1445 45.9249 70.0813 42.9436 68.0893C39.9623 66.0972 37.6387 63.2659 36.2666 59.9533C34.8945 56.6406 34.5354 52.9955 35.2349 49.4788C35.9345 45.9622 37.6611 42.7319 40.1964 40.1966C42.7318 37.6612 45.9621 35.9346 49.4787 35.2351C52.9954 34.5356 56.6405 34.8946 59.9531 36.2667C63.2658 37.6388 66.0971 39.9625 68.0891 42.9437C70.0812 45.925 71.1444 49.4301 71.1444 53.0156C71.1389 57.822 69.2272 62.43 65.8285 65.8286C62.4299 69.2273 57.8219 71.139 53.0155 71.1445Z" fill="#FB7D08"/>
<path d="M61.5467 39.5874L52.8119 16.6676C53.5521 16.3043 54.1472 15.7008 54.5002 14.9556C54.8531 14.2105 54.943 13.3676 54.7552 12.5648C54.5673 11.7619 54.1129 11.0465 53.466 10.5352C52.8191 10.024 52.0179 9.74718 51.1934 9.74997H40.5147C41.3054 8.57748 41.611 7.14428 41.3676 5.75123C41.1241 4.35817 40.3505 3.11359 39.2091 2.27873C38.0677 1.44387 36.6472 1.08365 35.2458 1.27368C33.8445 1.46371 32.5713 2.18922 31.6934 3.29791C30.8155 2.18922 29.5423 1.46371 28.141 1.27368C26.7396 1.08365 25.3192 1.44387 24.1777 2.27873C23.0363 3.11359 22.2627 4.35817 22.0192 5.75123C21.7758 7.14428 22.0815 8.57748 22.8721 9.74997H12.1934C11.3689 9.74718 10.5678 10.024 9.92085 10.5352C9.27394 11.0465 8.81947 11.7619 8.63163 12.5648C8.44379 13.3676 8.53368 14.2105 8.88663 14.9556C9.23957 15.7008 9.83472 16.3043 10.5749 16.6676L1.84378 39.5886C1.30128 41.02 1.11407 42.5616 1.29823 44.0812C1.48239 45.6008 2.03241 47.053 2.90112 48.3134C3.76982 49.5737 4.93129 50.6045 6.28588 51.3174C7.64048 52.0302 9.14778 52.4039 10.6785 52.4062H52.7083C54.2396 52.4048 55.7477 52.0318 57.103 51.3192C58.4584 50.6066 59.6206 49.5757 60.4898 48.3151C61.359 47.0544 61.9093 45.6016 62.0934 44.0814C62.2774 42.5613 62.0899 41.0191 61.5467 39.5874ZM35.959 3.65622C36.5616 3.65622 37.1507 3.83492 37.6518 4.16972C38.1528 4.50451 38.5434 4.98037 38.774 5.53711C39.0046 6.09385 39.0649 6.70648 38.9474 7.29752C38.8298 7.88855 38.5396 8.43145 38.1135 8.85757C37.6874 9.28368 37.1445 9.57387 36.5534 9.69143C35.9624 9.80899 35.3498 9.74866 34.793 9.51805C34.2363 9.28743 33.7604 8.89691 33.4257 8.39585C33.0909 7.8948 32.9122 7.30571 32.9122 6.7031C32.9122 5.89502 33.2332 5.12003 33.8046 4.54863C34.376 3.97723 35.151 3.65622 35.959 3.65622ZM24.3809 6.7031C24.3809 6.10048 24.5596 5.5114 24.8944 5.01035C25.2292 4.50929 25.7051 4.11876 26.2618 3.88815C26.8185 3.65754 27.4312 3.5972 28.0222 3.71477C28.6132 3.83233 29.1561 4.12252 29.5822 4.54863C30.0084 4.97475 30.2985 5.51765 30.4161 6.10868C30.5337 6.69972 30.4733 7.31234 30.2427 7.86909C30.0121 8.42583 29.6216 8.90169 29.1205 9.23648C28.6195 9.57128 28.0304 9.74997 27.4278 9.74997C26.6197 9.74997 25.8447 9.42897 25.2733 8.85757C24.7019 8.28617 24.3809 7.51118 24.3809 6.7031ZM12.1934 12.1875H51.1934C51.5166 12.1875 51.8266 12.3159 52.0552 12.5444C52.2838 12.773 52.4122 13.083 52.4122 13.4062C52.4122 13.7295 52.2838 14.0395 52.0552 14.268C51.8266 14.4966 51.5166 14.625 51.1934 14.625H12.1934C11.8702 14.625 11.5602 14.4966 11.3316 14.268C11.1031 14.0395 10.9747 13.7295 10.9747 13.4062C10.9747 13.083 11.1031 12.773 11.3316 12.5444C11.5602 12.3159 11.8702 12.1875 12.1934 12.1875ZM52.7083 49.9687H10.6785C9.54236 49.967 8.4236 49.6897 7.41818 49.1606C6.41277 48.6315 5.55071 47.8664 4.90597 46.9309C4.26123 45.9954 3.85304 44.9175 3.71643 43.7896C3.57982 42.6617 3.71886 41.5175 4.12163 40.4552L13.0331 17.0625H50.3537L59.2652 40.4539C59.6682 41.5164 59.8074 42.6607 59.671 43.7888C59.5345 44.9168 59.1263 45.9949 58.4815 46.9306C57.8368 47.8662 56.9746 48.6314 55.9691 49.1606C54.9635 49.6898 53.8446 49.9671 52.7083 49.9687Z" fill="#20DDF5"/>
<path d="M15.8501 43.875H11.8977C11.5509 43.8747 11.2094 43.7902 10.9024 43.6288C10.5955 43.4675 10.3323 43.234 10.1355 42.9485C9.93866 42.663 9.81409 42.3339 9.77246 41.9897C9.73083 41.6454 9.77338 41.2961 9.89647 40.9719L11.8757 35.7776C11.9327 35.6281 11.9597 35.4688 11.9551 35.3088C11.9505 35.1488 11.9144 34.9913 11.8489 34.8452C11.7835 34.6992 11.6899 34.5675 11.5735 34.4576C11.4571 34.3477 11.3202 34.2618 11.1707 34.2048C11.0211 34.1479 10.8618 34.1209 10.7018 34.1255C10.5418 34.1301 10.3843 34.1662 10.2383 34.2316C10.0922 34.2971 9.96049 34.3907 9.85061 34.5071C9.74074 34.6234 9.65486 34.7603 9.59788 34.9099L7.61741 40.1054C7.35485 40.7987 7.26437 41.5454 7.35374 42.2813C7.44311 43.0173 7.70965 43.7206 8.13051 44.3309C8.55138 44.9412 9.114 45.4404 9.77012 45.7855C10.4262 46.1306 11.1563 46.3115 11.8977 46.3125H15.8501C16.1733 46.3125 16.4833 46.1841 16.7119 45.9555C16.9404 45.727 17.0688 45.417 17.0688 45.0938C17.0688 44.7705 16.9404 44.4605 16.7119 44.232C16.4833 44.0034 16.1733 43.875 15.8501 43.875Z" fill="#FFBA09"/>
</svg>
