<svg width="78" height="79" viewBox="0 0 78 79" fill="none" xmlns="http://www.w3.org/2000/svg">
<path d="M19.9391 39.9753L35.9657 50.5541L45.4719 56.8307C46.0827 57.2353 46.799 57.451 47.5316 57.451C48.2642 57.451 48.9806 57.2353 49.5913 56.8307L59.0976 50.5541L75.1241 39.9753C75.6399 39.6444 76.0642 39.1892 76.3581 38.6515C76.652 38.1138 76.806 37.5108 76.806 36.898C76.806 36.2852 76.652 35.6822 76.3581 35.1445C76.0642 34.6068 75.6399 34.1516 75.1241 33.8207L49.5304 16.9653C48.9197 16.5607 48.2033 16.345 47.4707 16.345C46.7381 16.345 46.0217 16.5607 45.411 16.9653L19.8173 33.8207C19.3015 34.1516 18.8772 34.6068 18.5833 35.1445C18.2894 35.6822 18.1354 36.2852 18.1354 36.898C18.1354 37.5108 18.2894 38.1138 18.5833 38.6515C18.8772 39.1892 19.3015 39.6444 19.8173 39.9753H19.9391Z" fill="#8A02C7"/>
<path d="M74.4906 43.3147L50.9321 58.866C49.924 59.5342 48.7413 59.8906 47.5318 59.8906C46.3223 59.8906 45.1396 59.5342 44.1315 58.866L20.5731 43.3147C19.9113 43.6371 19.349 44.1323 18.9457 44.7481C18.5423 45.3638 18.3129 46.0771 18.2818 46.8125C18.2782 47.4241 18.428 48.0268 18.7175 48.5655C19.0071 49.1042 19.4272 49.5617 19.9393 49.896L45.5331 66.7513C46.1466 67.1484 46.8619 67.3598 47.5927 67.3598C48.3236 67.3598 49.0389 67.1484 49.6524 66.7513L75.2462 49.896C75.7358 49.5477 76.132 49.0842 76.3999 48.5464C76.6677 48.0086 76.7989 47.4131 76.7818 46.8125C76.7481 46.0778 76.5177 45.3655 76.1146 44.7502C75.7116 44.1349 75.1507 43.6392 74.4906 43.3147Z" fill="#8A02C7"/>
<path d="M74.4904 53.2354L50.9319 68.75C49.9253 69.4213 48.7416 69.7777 47.5316 69.7738C46.323 69.7691 45.1417 69.4134 44.1313 68.75L20.5729 53.2354C19.9095 53.5556 19.3458 54.0503 18.9421 54.6665C18.5385 55.2827 18.3102 55.9971 18.2816 56.7332C18.28 57.3427 18.4308 57.9429 18.7203 58.4793C19.0098 59.0157 19.4287 59.4712 19.9391 59.8044L45.5329 76.6597C46.1436 77.0643 46.86 77.2801 47.5926 77.2801C48.3252 77.2801 49.0415 77.0643 49.6523 76.6597L75.246 59.8044C75.7339 59.4573 76.129 58.9958 76.3968 58.4603C76.6645 57.9248 76.7967 57.3317 76.7816 56.7332C76.7505 55.9977 76.5211 55.2844 76.1178 54.6687C75.7144 54.0529 75.1521 53.5577 74.4904 53.2354Z" fill="#8A02C7"/>
<path d="M58.5005 1.71875H4.87549C3.90579 1.71875 2.97581 2.10396 2.29013 2.78964C1.60445 3.47532 1.21924 4.4053 1.21924 5.375V44.375C1.21924 45.3447 1.60445 46.2747 2.29013 46.9604C2.97581 47.646 3.90579 48.0312 4.87549 48.0312H58.5005C59.4702 48.0312 60.4002 47.646 61.0858 46.9604C61.7715 46.2747 62.1567 45.3447 62.1567 44.375V5.375C62.1567 4.4053 61.7715 3.47532 61.0858 2.78964C60.4002 2.10396 59.4702 1.71875 58.5005 1.71875ZM4.87549 4.15625H58.5005C58.8237 4.15625 59.1337 4.28465 59.3623 4.51321C59.5908 4.74177 59.7192 5.05177 59.7192 5.375V34.1253L48.397 22.7909C48.2838 22.6767 48.149 22.586 48.0004 22.5242C47.8519 22.4623 47.6926 22.4304 47.5317 22.4304C47.3708 22.4304 47.2116 22.4623 47.063 22.5242C46.9145 22.586 46.7797 22.6767 46.6664 22.7909L38.3911 31.0784L24.022 16.6972C23.9088 16.583 23.774 16.4923 23.6254 16.4304C23.4769 16.3685 23.3176 16.3367 23.1567 16.3367C22.9958 16.3367 22.8366 16.3685 22.688 16.4304C22.5395 16.4923 22.4047 16.583 22.2914 16.6972L3.65674 35.3441V5.375C3.65674 5.05177 3.78514 4.74177 4.0137 4.51321C4.24226 4.28465 4.55226 4.15625 4.87549 4.15625ZM58.5005 45.5938H4.87549C4.55226 45.5938 4.24226 45.4653 4.0137 45.2368C3.78514 45.0082 3.65674 44.6982 3.65674 44.375V38.7809L23.1567 19.2809L43.0102 39.1466C43.2397 39.3761 43.5509 39.505 43.8755 39.505C44.2 39.505 44.5113 39.3761 44.7408 39.1466C44.9703 38.9171 45.0992 38.6058 45.0992 38.2812C45.0992 37.9567 44.9703 37.6454 44.7408 37.4159L40.1096 32.7969L47.5317 25.3747L59.7192 37.5622V44.375C59.7192 44.6982 59.5908 45.0082 59.3623 45.2368C59.1337 45.4653 58.8237 45.5938 58.5005 45.5938Z" fill="#20DDF5"/>
<path d="M39.0005 17.5625C39.9647 17.5625 40.9072 17.2766 41.7089 16.7409C42.5106 16.2052 43.1354 15.4439 43.5044 14.5531C43.8734 13.6623 43.9699 12.6821 43.7818 11.7364C43.5937 10.7908 43.1294 9.92214 42.4476 9.24036C41.7659 8.55858 40.8972 8.09428 39.9516 7.90617C39.0059 7.71807 38.0257 7.81461 37.1349 8.18359C36.2441 8.55257 35.4827 9.17741 34.9471 9.9791C34.4114 10.7808 34.1255 11.7233 34.1255 12.6875C34.1255 13.9804 34.6391 15.2204 35.5533 16.1346C36.4676 17.0489 37.7076 17.5625 39.0005 17.5625ZM39.0005 10.25C39.4826 10.25 39.9539 10.393 40.3547 10.6608C40.7555 10.9286 41.068 11.3093 41.2525 11.7547C41.4369 12.2001 41.4852 12.6902 41.3912 13.163C41.2971 13.6359 41.065 14.0702 40.7241 14.4111C40.3832 14.752 39.9489 14.9841 39.476 15.0782C39.0032 15.1722 38.5131 15.1239 38.0677 14.9395C37.6223 14.755 37.2416 14.4425 36.9738 14.0417C36.7059 13.6409 36.563 13.1696 36.563 12.6875C36.563 12.041 36.8198 11.421 37.2769 10.9639C37.734 10.5068 38.354 10.25 39.0005 10.25Z" fill="#FFBA09"/>
</svg>
