<svg width="165" height="170" viewBox="0 0 165 170" fill="none" xmlns="http://www.w3.org/2000/svg">
<path d="M53.9185 127.839H48.2056V130.317H50.2622C51.7681 130.317 52.9604 130.684 53.8394 131.416C54.7241 132.143 55.1665 133.124 55.1665 134.36C55.1665 135.603 54.7271 136.602 53.8481 137.357C52.9751 138.107 51.812 138.488 50.3589 138.5H45.5425V125.703H53.9185V127.839ZM48.2056 132.444V136.382H50.3062C50.98 136.382 51.5161 136.197 51.9146 135.828C52.3188 135.459 52.521 134.964 52.521 134.343C52.521 133.763 52.3276 133.306 51.9409 132.972C51.5601 132.632 51.0356 132.456 50.3677 132.444H48.2056ZM62.1978 138.5C62.0806 138.271 61.9956 137.987 61.9429 137.647C61.3276 138.333 60.5278 138.676 59.5435 138.676C58.6118 138.676 57.8384 138.406 57.2231 137.867C56.6138 137.328 56.3091 136.648 56.3091 135.828C56.3091 134.82 56.6812 134.047 57.4253 133.508C58.1753 132.969 59.2563 132.696 60.6685 132.69H61.8374V132.146C61.8374 131.706 61.7231 131.354 61.4946 131.091C61.272 130.827 60.9175 130.695 60.4312 130.695C60.0034 130.695 59.6665 130.798 59.4204 131.003C59.1802 131.208 59.0601 131.489 59.0601 131.847H56.52C56.52 131.296 56.6899 130.786 57.0298 130.317C57.3696 129.849 57.8501 129.482 58.4712 129.219C59.0923 128.949 59.7896 128.814 60.563 128.814C61.7349 128.814 62.6636 129.11 63.3491 129.702C64.0405 130.288 64.3862 131.114 64.3862 132.181V136.303C64.3921 137.205 64.5181 137.888 64.7642 138.351V138.5H62.1978ZM60.0972 136.733C60.4722 136.733 60.8179 136.651 61.1343 136.487C61.4507 136.317 61.6851 136.092 61.8374 135.811V134.176H60.8882C59.6167 134.176 58.9399 134.615 58.8579 135.494L58.8491 135.644C58.8491 135.96 58.9604 136.221 59.1831 136.426C59.4058 136.631 59.7104 136.733 60.0972 136.733ZM74.5815 138.5H72.0327V134.844H68.8774V138.5H66.3374V128.99H68.8774V132.805H72.0327V128.99H74.5815V138.5ZM84.7944 138.5H82.2456V134.844H79.0903V138.5H76.5503V128.99H79.0903V132.805H82.2456V128.99H84.7944V138.5ZM91.1401 138.676C89.7456 138.676 88.6089 138.248 87.73 137.393C86.8569 136.537 86.4204 135.397 86.4204 133.974V133.728C86.4204 132.772 86.605 131.92 86.9741 131.17C87.3433 130.414 87.8647 129.834 88.5386 129.43C89.2183 129.02 89.9917 128.814 90.8589 128.814C92.1597 128.814 93.1821 129.225 93.9263 130.045C94.6763 130.865 95.0513 132.028 95.0513 133.534V134.571H88.9956C89.0776 135.192 89.3237 135.69 89.7339 136.065C90.1499 136.44 90.6743 136.628 91.3071 136.628C92.2856 136.628 93.0503 136.273 93.6011 135.564L94.8491 136.962C94.4683 137.501 93.9526 137.923 93.3022 138.228C92.6519 138.526 91.9312 138.676 91.1401 138.676ZM90.8501 130.871C90.3462 130.871 89.936 131.041 89.6196 131.381C89.3091 131.721 89.1099 132.207 89.022 132.84H92.5552V132.638C92.5435 132.075 92.3911 131.642 92.0981 131.337C91.8052 131.026 91.3892 130.871 90.8501 130.871ZM105.062 133.833C105.062 135.298 104.728 136.473 104.06 137.357C103.398 138.236 102.501 138.676 101.371 138.676C100.41 138.676 99.6333 138.342 99.0415 137.674V142.156H96.5015V128.99H98.8569L98.9448 129.922C99.5601 129.184 100.363 128.814 101.353 128.814C102.525 128.814 103.436 129.248 104.086 130.115C104.737 130.982 105.062 132.178 105.062 133.701V133.833ZM102.522 133.648C102.522 132.764 102.364 132.081 102.047 131.601C101.737 131.12 101.283 130.88 100.685 130.88C99.8882 130.88 99.3403 131.185 99.0415 131.794V135.688C99.3521 136.314 99.9058 136.628 100.703 136.628C101.916 136.628 102.522 135.635 102.522 133.648ZM109.36 131.776H111.179C112 131.776 112.72 131.914 113.341 132.189C113.962 132.465 114.437 132.86 114.765 133.376C115.099 133.886 115.266 134.48 115.266 135.16C115.266 136.162 114.894 136.971 114.15 137.586C113.412 138.195 112.404 138.5 111.126 138.5H106.811V128.99H109.36V131.776ZM119.309 138.5H116.769V128.99H119.309V138.5ZM109.36 133.815V136.47H111.162C111.666 136.47 112.052 136.353 112.322 136.118C112.591 135.884 112.726 135.564 112.726 135.16C112.726 134.75 112.594 134.425 112.331 134.185C112.067 133.938 111.677 133.815 111.162 133.815H109.36Z" fill="white"/>
<path d="M63.9391 39.9753L79.9657 50.5541L89.4719 56.8307C90.0827 57.2353 90.799 57.451 91.5316 57.451C92.2642 57.451 92.9806 57.2353 93.5913 56.8307L103.098 50.5541L119.124 39.9753C119.64 39.6444 120.064 39.1892 120.358 38.6515C120.652 38.1138 120.806 37.5108 120.806 36.898C120.806 36.2852 120.652 35.6822 120.358 35.1445C120.064 34.6068 119.64 34.1516 119.124 33.8207L93.5304 16.9653C92.9197 16.5607 92.2033 16.345 91.4707 16.345C90.7381 16.345 90.0217 16.5607 89.411 16.9653L63.8173 33.8207C63.3015 34.1516 62.8772 34.6068 62.5833 35.1445C62.2894 35.6822 62.1354 36.2852 62.1354 36.898C62.1354 37.5108 62.2894 38.1138 62.5833 38.6515C62.8772 39.1892 63.3015 39.6444 63.8173 39.9753H63.9391Z" fill="#8A02C7"/>
<path d="M118.491 43.3147L94.9321 58.866C93.924 59.5342 92.7413 59.8906 91.5318 59.8906C90.3223 59.8906 89.1396 59.5342 88.1315 58.866L64.5731 43.3147C63.9113 43.6371 63.349 44.1323 62.9457 44.7481C62.5423 45.3638 62.3129 46.0771 62.2818 46.8125C62.2782 47.4241 62.428 48.0268 62.7175 48.5655C63.0071 49.1042 63.4272 49.5617 63.9393 49.896L89.5331 66.7513C90.1466 67.1484 90.8619 67.3598 91.5927 67.3598C92.3236 67.3598 93.0389 67.1484 93.6524 66.7513L119.246 49.896C119.736 49.5477 120.132 49.0842 120.4 48.5464C120.668 48.0086 120.799 47.4131 120.782 46.8125C120.748 46.0778 120.518 45.3655 120.115 44.7502C119.712 44.1349 119.151 43.6392 118.491 43.3147Z" fill="#8A02C7"/>
<path d="M118.49 53.2354L94.9319 68.75C93.9253 69.4213 92.7416 69.7777 91.5316 69.7738C90.323 69.7691 89.1417 69.4134 88.1313 68.75L64.5729 53.2354C63.9095 53.5556 63.3458 54.0503 62.9421 54.6665C62.5385 55.2827 62.3102 55.9971 62.2816 56.7332C62.28 57.3427 62.4308 57.9429 62.7203 58.4793C63.0098 59.0157 63.4287 59.4712 63.9391 59.8044L89.5329 76.6597C90.1436 77.0643 90.86 77.2801 91.5926 77.2801C92.3252 77.2801 93.0415 77.0643 93.6523 76.6597L119.246 59.8044C119.734 59.4573 120.129 58.9958 120.397 58.4603C120.665 57.9248 120.797 57.3317 120.782 56.7332C120.75 55.9977 120.521 55.2844 120.118 54.6687C119.714 54.0529 119.152 53.5577 118.49 53.2354Z" fill="#8A02C7"/>
<path d="M102.5 1.71875H48.8755C47.9058 1.71875 46.9758 2.10396 46.2901 2.78964C45.6044 3.47532 45.2192 4.4053 45.2192 5.375V44.375C45.2192 45.3447 45.6044 46.2747 46.2901 46.9604C46.9758 47.646 47.9058 48.0312 48.8755 48.0312H102.5C103.47 48.0312 104.4 47.646 105.086 46.9604C105.772 46.2747 106.157 45.3447 106.157 44.375V5.375C106.157 4.4053 105.772 3.47532 105.086 2.78964C104.4 2.10396 103.47 1.71875 102.5 1.71875ZM48.8755 4.15625H102.5C102.824 4.15625 103.134 4.28465 103.362 4.51321C103.591 4.74177 103.719 5.05177 103.719 5.375V34.1253L92.397 22.7909C92.2838 22.6767 92.149 22.586 92.0004 22.5242C91.8519 22.4623 91.6926 22.4304 91.5317 22.4304C91.3708 22.4304 91.2116 22.4623 91.063 22.5242C90.9145 22.586 90.7797 22.6767 90.6664 22.7909L82.3911 31.0784L68.022 16.6972C67.9088 16.583 67.774 16.4923 67.6254 16.4304C67.4769 16.3685 67.3176 16.3367 67.1567 16.3367C66.9958 16.3367 66.8366 16.3685 66.688 16.4304C66.5395 16.4923 66.4047 16.583 66.2914 16.6972L47.6567 35.3441V5.375C47.6567 5.05177 47.7851 4.74177 48.0137 4.51321C48.2423 4.28465 48.5523 4.15625 48.8755 4.15625ZM102.5 45.5938H48.8755C48.5523 45.5938 48.2423 45.4653 48.0137 45.2368C47.7851 45.0082 47.6567 44.6982 47.6567 44.375V38.7809L67.1567 19.2809L87.0102 39.1466C87.2397 39.3761 87.5509 39.505 87.8755 39.505C88.2 39.505 88.5113 39.3761 88.7408 39.1466C88.9703 38.9171 89.0992 38.6058 89.0992 38.2812C89.0992 37.9567 88.9703 37.6454 88.7408 37.4159L84.1096 32.7969L91.5317 25.3747L103.719 37.5622V44.375C103.719 44.6982 103.591 45.0082 103.362 45.2368C103.134 45.4653 102.824 45.5938 102.5 45.5938Z" fill="#20DDF5"/>
<path d="M83.0005 17.5625C83.9647 17.5625 84.9072 17.2766 85.7089 16.7409C86.5106 16.2052 87.1354 15.4439 87.5044 14.5531C87.8734 13.6623 87.9699 12.6821 87.7818 11.7364C87.5937 10.7908 87.1294 9.92214 86.4476 9.24036C85.7659 8.55858 84.8972 8.09428 83.9516 7.90617C83.0059 7.71807 82.0257 7.81461 81.1349 8.18359C80.2441 8.55257 79.4827 9.17741 78.9471 9.9791C78.4114 10.7808 78.1255 11.7233 78.1255 12.6875C78.1255 13.9804 78.6391 15.2204 79.5533 16.1346C80.4676 17.0489 81.7076 17.5625 83.0005 17.5625ZM83.0005 10.25C83.4826 10.25 83.9539 10.393 84.3547 10.6608C84.7555 10.9286 85.068 11.3093 85.2525 11.7547C85.4369 12.2001 85.4852 12.6902 85.3912 13.163C85.2971 13.6359 85.065 14.0702 84.7241 14.4111C84.3832 14.752 83.9489 14.9841 83.476 15.0782C83.0032 15.1722 82.5131 15.1239 82.0677 14.9395C81.6223 14.755 81.2416 14.4425 80.9738 14.0417C80.7059 13.6409 80.563 13.1696 80.563 12.6875C80.563 12.041 80.8198 11.421 81.2769 10.9639C81.734 10.5068 82.354 10.25 83.0005 10.25Z" fill="#FFBA09"/>
</svg>
