<svg width="78" height="78" viewBox="0 0 78 78" fill="none" xmlns="http://www.w3.org/2000/svg">
<path d="M41.4375 46.3126C41.4375 45.9894 41.5659 45.6794 41.7945 45.4508C42.023 45.2223 42.333 45.0939 42.6563 45.0939C42.9795 45.0939 43.2895 45.2223 43.518 45.4508C43.7466 45.6794 43.875 45.9894 43.875 46.3126V59.7189H58.3404C57.8004 46.9707 55.5007 15.8439 42.6563 15.8439C29.8119 15.8439 27.5145 46.922 26.9722 59.7189H41.4375V46.3126Z" fill="#E62247"/>
<path d="M12.1874 63.3751V65.8126C12.1874 66.1358 12.3158 66.4458 12.5443 66.6744C12.7729 66.9029 13.0829 67.0313 13.4061 67.0313H24.5991C24.4548 66.641 24.3789 66.2287 24.3749 65.8126C24.3749 61.0339 24.8283 52.4892 25.6046 45.7593C21.7561 46.8359 18.3639 49.1385 15.9425 52.3176C13.5211 55.4967 12.2027 59.3789 12.1874 63.3751Z" fill="#E62247"/>
<path d="M41.4374 62.1564H26.8831C26.8124 64.405 26.8124 65.7773 26.8124 65.8126C26.8124 66.1359 26.9408 66.4458 27.1693 66.6744C27.3979 66.903 27.7079 67.0314 28.0311 67.0314H41.4374V62.1564Z" fill="#E62247"/>
<path d="M59.7092 45.7593C60.3771 51.5532 60.9377 60.0845 60.9377 65.8126C60.9337 66.2287 60.8578 66.641 60.7135 67.0313H71.9065C72.2297 67.0313 72.5397 66.9029 72.7683 66.6744C72.9968 66.4458 73.1252 66.1358 73.1252 65.8126V63.3751C73.11 59.379 71.7918 55.497 69.3706 52.3179C66.9495 49.1388 63.5575 46.8362 59.7092 45.7593Z" fill="#E62247"/>
<path d="M43.8749 62.1564V67.0314H57.2811C57.6044 67.0314 57.9144 66.903 58.1429 66.6744C58.3715 66.4458 58.4999 66.1359 58.4999 65.8126C58.4999 65.7773 58.4999 64.405 58.4292 62.1564H43.8749Z" fill="#E62247"/>
<path d="M33.6091 69.4689C35.5993 72.5645 38.9814 76.7814 42.6559 76.7814C46.3304 76.7814 49.7125 72.5645 51.7027 69.4689H33.6091Z" fill="#E62247"/>
<path d="M46.3124 21.9376C46.3163 18.2126 45.3159 14.5555 43.4165 11.3511C41.5171 8.14679 38.789 5.51378 35.5192 3.72927C32.2495 1.94476 28.5592 1.07476 24.8367 1.21086C21.1142 1.34695 17.4972 2.48411 14.3665 4.50262C11.2358 6.52113 8.70722 9.34633 7.04688 12.6808C5.38654 16.0153 4.65588 19.7358 4.93181 23.4505C5.20773 27.1653 6.48004 30.7369 8.61481 33.7895C10.7496 36.8421 13.6678 39.2627 17.0624 40.7966V45.3145C16.4951 45.5117 15.9858 45.8468 15.58 46.2896C15.1743 46.7324 14.8849 47.269 14.7379 47.8513C14.5908 48.4336 14.5907 49.0433 14.7376 49.6256C14.8844 50.208 15.1736 50.7447 15.5792 51.1876C14.9646 51.8504 14.6237 52.7213 14.6249 53.6251C14.6249 54.5948 15.0101 55.5248 15.6958 56.2105C16.3814 56.8962 17.3114 57.2814 18.2811 57.2814H19.6217C19.9015 58.6589 20.6488 59.8974 21.7372 60.787C22.8255 61.6765 24.188 62.1625 25.5936 62.1625C26.9993 62.1625 28.3617 61.6765 29.4501 60.787C30.5384 59.8974 31.2858 58.6589 31.5655 57.2814H32.9061C33.613 57.2838 34.3052 57.0804 34.8984 56.696C35.4916 56.3116 35.96 55.7628 36.2465 55.1166C36.533 54.4704 36.6252 53.7548 36.5118 53.0571C36.3985 52.3594 36.0844 51.7099 35.6081 51.1876C36.2226 50.5248 36.5636 49.654 36.5624 48.7501C36.5592 47.9966 36.3234 47.2625 35.8871 46.6482C35.4508 46.0338 34.8353 45.5693 34.1249 45.3181V40.7966C37.753 39.1556 40.8317 36.5044 42.993 33.16C45.1543 29.8156 46.3067 25.9196 46.3124 21.9376ZM25.5936 59.7189C24.8377 59.718 24.1005 59.4832 23.4832 59.0468C22.8659 58.6104 22.3988 57.9938 22.1458 57.2814H29.0415C28.7885 57.9938 28.3213 58.6104 27.704 59.0468C27.0867 59.4832 26.3496 59.718 25.5936 59.7189ZM32.9061 54.8439H18.2811C17.9579 54.8439 17.6479 54.7155 17.4193 54.4869C17.1908 54.2584 17.0624 53.9484 17.0624 53.6251C17.0624 53.3019 17.1908 52.9919 17.4193 52.7634C17.6479 52.5348 17.9579 52.4064 18.2811 52.4064H32.9061C33.2294 52.4064 33.5394 52.5348 33.7679 52.7634C33.9965 52.9919 34.1249 53.3019 34.1249 53.6251C34.1249 53.9484 33.9965 54.2584 33.7679 54.4869C33.5394 54.7155 33.2294 54.8439 32.9061 54.8439ZM32.9061 49.9689H18.2811C17.9579 49.9689 17.6479 49.8405 17.4193 49.6119C17.1908 49.3834 17.0624 49.0734 17.0624 48.7501C17.0624 48.4269 17.1908 48.1169 17.4193 47.8883C17.6479 47.6598 17.9579 47.5314 18.2811 47.5314H32.9061C33.2294 47.5314 33.5394 47.6598 33.7679 47.8883C33.9965 48.1169 34.1249 48.4269 34.1249 48.7501C34.1249 49.0734 33.9965 49.3834 33.7679 49.6119C33.5394 49.8405 33.2294 49.9689 32.9061 49.9689ZM19.4999 45.0939V41.7387C21.4789 42.3249 23.5297 42.6338 25.5936 42.6564C27.6575 42.6331 29.7082 42.3243 31.6874 41.7387V45.0939H19.4999ZM30.4686 39.5388V22.3654L35.0767 16.6056C35.2787 16.3532 35.3722 16.0308 35.3365 15.7094C35.3009 15.3881 35.139 15.0941 34.8866 14.892C34.6341 14.69 34.3118 14.5966 33.9904 14.6322C33.6691 14.6679 33.375 14.8297 33.173 15.0822L28.298 21.1759C28.1251 21.3921 28.031 21.6608 28.0311 21.9376V40.0373C27.2236 40.1522 26.4093 40.2128 25.5936 40.2189C24.778 40.2128 23.9637 40.1522 23.1561 40.0373V21.9376C23.1563 21.6608 23.0621 21.3921 22.8892 21.1759L18.0142 15.0822C17.8122 14.8297 17.5182 14.6679 17.1968 14.6322C16.8755 14.5966 16.5531 14.69 16.3007 14.892C16.0482 15.0941 15.8864 15.3881 15.8507 15.7094C15.815 16.0308 15.9085 16.3532 16.1105 16.6056L20.7186 22.3654V39.5388C16.4564 38.3595 12.7661 35.6752 10.3316 31.9832C7.89718 28.2912 6.88356 23.8418 7.47863 19.4597C8.07369 15.0775 10.2371 11.0596 13.5679 8.1505C16.8988 5.24138 21.1712 3.6383 25.5936 3.6383C30.016 3.6383 34.2885 5.24138 37.6193 8.1505C40.9502 11.0596 43.1136 15.0775 43.7086 19.4597C44.3037 23.8418 43.2901 28.2912 40.8556 31.9832C38.4211 35.6752 34.7309 38.3595 30.4686 39.5388Z" fill="#20DDF5"/>
<path d="M44.9999 22.0001C44.9999 32.4494 36.3141 41.0001 25.4999 41.0001C14.6857 41.0001 5.99988 32.4494 5.99988 22.0001C5.99988 11.5508 14.6857 3.00012 25.4999 3.00012C36.3141 3.00012 44.9999 11.5508 44.9999 22.0001Z" stroke="#FFBA09" stroke-width="4"/>
</svg>
