<svg width="78" height="79" viewBox="0 0 78 79" fill="none" xmlns="http://www.w3.org/2000/svg">
<path d="M75.9621 26.6608L47.9309 16.9108C47.6722 16.8194 47.39 16.8194 47.1314 16.9108L19.1001 26.6608C18.8416 26.7509 18.6209 26.9254 18.4736 27.1562C18.3264 27.3871 18.2611 27.6608 18.2884 27.9332L19.4755 39.8038C22.2676 67.7315 46.5488 77.2804 46.9863 77.6582C47.1555 77.7427 47.342 77.7867 47.5311 77.7867C47.7202 77.7867 47.9067 77.7427 48.0759 77.6582C49.2849 76.6759 72.6654 69.0294 75.321 42.4838L76.7811 27.9332C76.8079 27.6598 76.7416 27.3855 76.593 27.1545C76.4443 26.9236 76.222 26.7496 75.9621 26.6608ZM61.8855 40.83L44.277 55.1369C43.8091 55.517 43.2168 55.7102 42.6147 55.6792C42.0125 55.6481 41.4433 55.395 41.0169 54.9687L32.9902 46.9457C32.5327 46.4882 32.2756 45.8676 32.2756 45.2205C32.2756 44.5735 32.5327 43.9529 32.9902 43.4954C33.4477 43.0379 34.0683 42.7808 34.7153 42.7808C35.3624 42.7808 35.9829 43.0379 36.4405 43.4954L42.9133 49.9682L58.8167 37.0494C59.3209 36.677 59.9492 36.5131 60.5711 36.5918C61.193 36.6705 61.7607 36.9857 62.1562 37.4721C62.5517 37.9584 62.7446 38.5784 62.6949 39.2033C62.6452 39.8282 62.3566 40.4099 61.8892 40.8276L61.8855 40.83Z" fill="#E62247"/>
<path d="M59.0022 48.5301L52.0236 41.5527C54.1592 38.2039 55.4855 34.4037 55.8977 30.4533C56.3098 26.5029 55.7964 22.5108 54.3981 18.7933C52.9998 15.0757 50.755 11.7348 47.8416 9.03531C44.9282 6.33578 41.4262 4.35176 37.613 3.24041C33.7998 2.12906 29.7802 1.92092 25.8726 2.63248C21.9651 3.34405 18.2769 4.95576 15.1002 7.33994C11.9236 9.72413 9.34574 12.8153 7.57095 16.3685C5.79616 19.9218 4.87316 23.8395 4.87508 27.8113C4.87509 32.6834 6.27536 37.4527 8.90914 41.5515L1.93302 48.5301C1.62534 48.8382 1.40582 49.2231 1.29728 49.6448C1.18874 50.0665 1.19514 50.5095 1.31581 50.9279C1.43648 51.3463 1.66703 51.7247 1.98347 52.0238C2.29991 52.3229 2.6907 52.5318 3.1152 52.6287L9.14802 54.0059L10.5252 60.0387C10.622 60.4635 10.8309 60.8545 11.1301 61.1712C11.4293 61.4878 11.8078 61.7185 12.2264 61.8392C12.645 61.9599 13.0883 61.9662 13.5101 61.8574C13.932 61.7487 14.317 61.5289 14.6251 61.2209L23.444 52.402C28.0305 53.7394 32.9035 53.7394 37.49 52.402L46.3126 61.2209C46.6207 61.5286 47.0056 61.7481 47.4273 61.8567C47.849 61.9652 48.292 61.9588 48.7104 61.8381C49.1288 61.7174 49.5072 61.4869 49.8063 61.1705C50.1054 60.854 50.3143 60.4632 50.4112 60.0387L51.7884 54.0035L57.8212 52.6275C58.2454 52.5303 58.6358 52.3213 58.9519 52.0222C59.268 51.7231 59.4983 51.3448 59.6188 50.9267C59.7393 50.5085 59.7457 50.0658 59.6373 49.6443C59.5288 49.2229 59.3096 48.8381 59.0022 48.5301ZM12.9018 59.4988L11.5258 53.4624C11.4206 53.0169 11.1931 52.6096 10.8687 52.2866C10.5444 51.9636 10.1363 51.7376 9.69036 51.6342L3.65633 50.2522L10.34 43.5673C13.0993 47.0915 16.7311 49.834 20.876 51.5233L12.9018 59.4988ZM7.31258 27.8113C7.31258 23.2314 8.67067 18.7544 11.2151 14.9464C13.7596 11.1384 17.3761 8.17038 21.6073 6.41774C25.8386 4.6651 30.4945 4.20652 34.9864 5.10001C39.4783 5.9935 43.6043 8.19892 46.8428 11.4374C50.0812 14.6758 52.2867 18.8019 53.1801 23.2938C54.0736 27.7856 53.6151 32.4416 51.8624 36.6728C50.1098 40.9041 47.1418 44.5206 43.3338 47.065C39.5257 49.6095 35.0487 50.9676 30.4688 50.9676C24.3295 50.9608 18.4435 48.519 14.1024 44.1778C9.7612 39.8366 7.31935 33.9507 7.31258 27.8113ZM51.2412 51.6281C50.7965 51.7325 50.3898 51.9589 50.0668 52.2818C49.7438 52.6048 49.5174 53.0116 49.4131 53.4563L48.0335 59.4988L40.058 51.5245C44.2031 49.8357 47.8351 47.0931 50.5941 43.5685L57.2813 50.2522L51.2412 51.6281Z" fill="#20DDF5"/>
<path d="M41.0914 21.1801L36.4967 20.5122L34.4419 16.3478C34.0756 15.6064 33.5092 14.9823 32.8068 14.5459C32.1043 14.1095 31.2939 13.8782 30.467 13.8782C29.64 13.8782 28.8296 14.1095 28.1271 14.5459C27.4247 14.9823 26.8583 15.6064 26.492 16.3478L24.4372 20.5122L19.8413 21.1801C19.0235 21.2993 18.2553 21.6449 17.6236 22.1777C16.9919 22.7106 16.5217 23.4095 16.2663 24.1954C16.0109 24.9814 15.9803 25.8231 16.1781 26.6256C16.3758 27.428 16.7941 28.1591 17.3855 28.7364L20.7115 31.9782L19.9266 36.5558C19.7877 37.3707 19.8794 38.208 20.1912 38.9735C20.503 39.739 21.0226 40.4021 21.6914 40.8879C22.3601 41.3737 23.1513 41.6629 23.9756 41.7229C24.8 41.7829 25.6247 41.6112 26.3567 41.2273L30.4688 39.0689L34.5784 41.2298C35.3104 41.6145 36.1354 41.7868 36.9602 41.7272C37.785 41.6676 38.5766 41.3785 39.2457 40.8925C39.9147 40.4065 40.4345 39.7431 40.7463 38.9771C41.058 38.2112 41.1493 37.3734 41.0097 36.5583L40.2188 31.9807L43.546 28.7388C44.1376 28.1615 44.5561 27.4303 44.7541 26.6278C44.952 25.8252 44.9217 24.9833 44.6664 24.1971C44.4111 23.4109 43.941 22.7117 43.3093 22.1786C42.6775 21.6455 41.9093 21.2996 41.0914 21.1801ZM41.847 26.9935L38.0689 30.6827C37.9276 30.8207 37.8219 30.9909 37.7609 31.1788C37.7 31.3667 37.6857 31.5666 37.7191 31.7613L38.6125 36.9702C38.6768 37.3383 38.6365 37.7171 38.496 38.0633C38.3555 38.4096 38.1205 38.7094 37.8179 38.9285C37.5152 39.1477 37.1571 39.2774 36.7843 39.3029C36.4115 39.3283 36.039 39.2485 35.7094 39.0726L31.0318 36.6143C30.8569 36.5223 30.6622 36.4743 30.4645 36.4743C30.2668 36.4743 30.0721 36.5223 29.8972 36.6143L25.2282 39.0726C24.8988 39.2463 24.5274 39.3243 24.1561 39.2978C23.7847 39.2712 23.4282 39.1411 23.1269 38.9222C22.8257 38.7033 22.5919 38.4045 22.4519 38.0594C22.3119 37.7144 22.2713 37.3371 22.3348 36.9702L23.2282 31.7613C23.2615 31.5665 23.247 31.3666 23.1858 31.1787C23.1247 30.9908 23.0187 30.8206 22.8772 30.6827L19.0991 26.9935C18.8317 26.7342 18.6423 26.405 18.5525 26.0435C18.4628 25.682 18.4761 25.3025 18.5911 24.9482C18.7061 24.5938 18.9181 24.2788 19.203 24.0389C19.488 23.799 19.8345 23.6437 20.2032 23.5908L25.4341 22.8315C25.6297 22.8031 25.8154 22.7276 25.9753 22.6114C26.1351 22.4953 26.2644 22.342 26.3518 22.1649L28.6906 17.4264C28.8548 17.0921 29.1094 16.8105 29.4256 16.6136C29.7417 16.4166 30.1067 16.3123 30.4791 16.3123C30.8516 16.3123 31.2166 16.4166 31.5327 16.6136C31.8488 16.8105 32.1034 17.0921 32.2677 17.4264L34.6064 22.1649C34.6939 22.342 34.8231 22.4953 34.983 22.6114C35.1429 22.7276 35.3286 22.8031 35.5242 22.8315L40.7538 23.5908C41.1214 23.6458 41.4663 23.8026 41.7495 24.0432C42.0327 24.2839 42.2431 24.5989 42.3568 24.9528C42.4705 25.3067 42.483 25.6852 42.3929 26.0458C42.3028 26.4064 42.1138 26.7347 41.847 26.9935Z" fill="#FFBA09"/>
</svg>
