<svg width="78" height="78" viewBox="0 0 78 78" fill="none" xmlns="http://www.w3.org/2000/svg">
<path d="M40.2191 67.0316H19.5004V70.6878C19.5004 71.0111 19.6288 71.321 19.8573 71.5496C20.0859 71.7782 20.3959 71.9066 20.7191 71.9066H43.6645C43.9261 71.1478 43.9376 70.3251 43.6974 69.5593C43.4608 68.8234 42.9963 68.1819 42.371 67.7275C41.7457 67.2731 40.9921 67.0294 40.2191 67.0316Z" fill="#9605D7"/>
<path d="M46.4908 69.5593C46.2506 70.3251 46.2621 71.1478 46.5237 71.9066H69.4691C69.7923 71.9066 70.1023 71.7782 70.3309 71.5496C70.5594 71.321 70.6878 71.0111 70.6878 70.6878V67.0316H49.9691C49.1962 67.0294 48.4425 67.2731 47.8172 67.7275C47.192 68.1819 46.7274 68.8234 46.4908 69.5593Z" fill="#9605D7"/>
<path d="M71.9066 25.5941H70.6879V24.3753C70.6879 23.4056 70.3027 22.4756 69.617 21.7899C68.9313 21.1043 68.0013 20.7191 67.0316 20.7191H49.9691C49.0196 20.7217 48.0839 20.947 47.2372 21.3769C46.3906 21.8068 45.6566 22.4293 45.0941 23.1943C44.5317 22.4293 43.7976 21.8068 42.951 21.3769C42.1043 20.947 41.1687 20.7217 40.2191 20.7191H23.1566C22.1869 20.7191 21.2569 21.1043 20.5713 21.7899C19.8856 22.4756 19.5004 23.4056 19.5004 24.3753V25.5941H18.2816C17.3119 25.5941 16.3819 25.9793 15.6963 26.6649C15.0106 27.3506 14.6254 28.2806 14.6254 29.2503V73.1253C14.6254 74.095 15.0106 75.025 15.6963 75.7107C16.3819 76.3963 17.3119 76.7816 18.2816 76.7816H71.9066C72.8763 76.7816 73.8063 76.3963 74.492 75.7107C75.1777 75.025 75.5629 74.095 75.5629 73.1253V29.2503C75.5629 28.2806 75.1777 27.3506 74.492 26.6649C73.8063 25.9793 72.8763 25.5941 71.9066 25.5941ZM52.4066 26.8128H62.1566C62.4798 26.8128 62.7898 26.9412 63.0184 27.1698C63.247 27.3983 63.3754 27.7083 63.3754 28.0316C63.3754 28.3548 63.247 28.6648 63.0184 28.8933C62.7898 29.1219 62.4798 29.2503 62.1566 29.2503H52.4066C52.0834 29.2503 51.7734 29.1219 51.5448 28.8933C51.3163 28.6648 51.1879 28.3548 51.1879 28.0316C51.1879 27.7083 51.3163 27.3983 51.5448 27.1698C51.7734 26.9412 52.0834 26.8128 52.4066 26.8128ZM52.4066 34.1253H62.1566C62.4798 34.1253 62.7898 34.2537 63.0184 34.4823C63.247 34.7108 63.3754 35.0208 63.3754 35.3441C63.3754 35.6673 63.247 35.9773 63.0184 36.2058C62.7898 36.4344 62.4798 36.5628 62.1566 36.5628H52.4066C52.0834 36.5628 51.7734 36.4344 51.5448 36.2058C51.3163 35.9773 51.1879 35.6673 51.1879 35.3441C51.1879 35.0208 51.3163 34.7108 51.5448 34.4823C51.7734 34.2537 52.0834 34.1253 52.4066 34.1253ZM52.4066 41.4378H62.1566C62.4798 41.4378 62.7898 41.5662 63.0184 41.7948C63.247 42.0233 63.3754 42.3333 63.3754 42.6566C63.3754 42.9798 63.247 43.2898 63.0184 43.5183C62.7898 43.7469 62.4798 43.8753 62.1566 43.8753H52.4066C52.0834 43.8753 51.7734 43.7469 51.5448 43.5183C51.3163 43.2898 51.1879 42.9798 51.1879 42.6566C51.1879 42.3333 51.3163 42.0233 51.5448 41.7948C51.7734 41.5662 52.0834 41.4378 52.4066 41.4378ZM52.4066 48.7503H62.1566C62.4798 48.7503 62.7898 48.8787 63.0184 49.1073C63.247 49.3358 63.3754 49.6458 63.3754 49.9691C63.3754 50.2923 63.247 50.6023 63.0184 50.8308C62.7898 51.0594 62.4798 51.1878 62.1566 51.1878H52.4066C52.0834 51.1878 51.7734 51.0594 51.5448 50.8308C51.3163 50.6023 51.1879 50.2923 51.1879 49.9691C51.1879 49.6458 51.3163 49.3358 51.5448 49.1073C51.7734 48.8787 52.0834 48.7503 52.4066 48.7503ZM52.4066 56.0628H62.1566C62.4798 56.0628 62.7898 56.1912 63.0184 56.4198C63.247 56.6483 63.3754 56.9583 63.3754 57.2816C63.3754 57.6048 63.247 57.9148 63.0184 58.1433C62.7898 58.3719 62.4798 58.5003 62.1566 58.5003H52.4066C52.0834 58.5003 51.7734 58.3719 51.5448 58.1433C51.3163 57.9148 51.1879 57.6048 51.1879 57.2816C51.1879 56.9583 51.3163 56.6483 51.5448 56.4198C51.7734 56.1912 52.0834 56.0628 52.4066 56.0628ZM27.7026 26.8128H38.1107C38.4662 26.8128 38.8072 26.954 39.0586 27.2055C39.3101 27.4569 39.4513 27.7979 39.4513 28.1534C39.4492 28.5106 39.308 28.8529 39.0577 29.1077C38.8075 29.3626 38.4678 29.5099 38.1107 29.5184H34.2351V42.5347C34.2377 42.7115 34.2048 42.887 34.1384 43.0508C34.0719 43.2146 33.9733 43.3635 33.8483 43.4885C33.7232 43.6135 33.5744 43.7122 33.4106 43.7786C33.2467 43.8451 33.0712 43.8779 32.8944 43.8753C32.7184 43.8753 32.544 43.8406 32.3814 43.7733C32.2187 43.7059 32.071 43.6071 31.9465 43.4826C31.822 43.3582 31.7232 43.2104 31.6559 43.0477C31.5885 42.8851 31.5538 42.7107 31.5538 42.5347V29.5184H27.7026C27.3443 29.5136 27.0024 29.3675 26.7513 29.1118C26.5002 28.8562 26.3603 28.5117 26.3619 28.1534C26.3595 27.9767 26.3925 27.8013 26.459 27.6375C26.5255 27.4737 26.6241 27.325 26.7491 27.2C26.8741 27.075 27.0229 26.9763 27.1866 26.9098C27.3504 26.8433 27.5258 26.8103 27.7026 26.8128ZM37.7816 51.1878H28.0316C27.7084 51.1878 27.3984 51.0594 27.1698 50.8308C26.9413 50.6023 26.8129 50.2923 26.8129 49.9691C26.8129 49.6458 26.9413 49.3358 27.1698 49.1073C27.3984 48.8787 27.7084 48.7503 28.0316 48.7503H37.7816C38.1048 48.7503 38.4148 48.8787 38.6434 49.1073C38.872 49.3358 39.0004 49.6458 39.0004 49.9691C39.0004 50.2923 38.872 50.6023 38.6434 50.8308C38.4148 51.0594 38.1048 51.1878 37.7816 51.1878ZM39.0004 57.2816C39.0004 57.6048 38.872 57.9148 38.6434 58.1433C38.4148 58.3719 38.1048 58.5003 37.7816 58.5003H28.0316C27.7084 58.5003 27.3984 58.3719 27.1698 58.1433C26.9413 57.9148 26.8129 57.6048 26.8129 57.2816C26.8129 56.9583 26.9413 56.6483 27.1698 56.4198C27.3984 56.1912 27.7084 56.0628 28.0316 56.0628H37.7816C38.1048 56.0628 38.4148 56.1912 38.6434 56.4198C38.872 56.6483 39.0004 56.9583 39.0004 57.2816ZM73.1254 73.1253C73.1254 73.4485 72.997 73.7585 72.7684 73.9871C72.5398 74.2157 72.2298 74.3441 71.9066 74.3441H18.2816C17.9584 74.3441 17.6484 74.2157 17.4198 73.9871C17.1913 73.7585 17.0629 73.4485 17.0629 73.1253V29.2503C17.0629 28.9271 17.1913 28.6171 17.4198 28.3885C17.6484 28.16 17.9584 28.0316 18.2816 28.0316H19.5004V64.5941H40.2191C41.165 64.5947 42.0978 64.8153 42.9439 65.2383C43.7899 65.6613 44.526 66.2752 45.0941 67.0316C45.6622 66.2752 46.3983 65.6613 47.2444 65.2383C48.0904 64.8153 49.0232 64.5947 49.9691 64.5941H70.6879V28.0316H71.9066C72.2298 28.0316 72.5398 28.16 72.7684 28.3885C72.997 28.6171 73.1254 28.9271 73.1254 29.2503V73.1253Z" fill="#8A02C7"/>
<path d="M13.4066 6.09406H8.53162C8.20838 6.09406 7.89839 6.22246 7.66983 6.45102C7.44127 6.67958 7.31287 6.98957 7.31287 7.31281V12.1878C7.31287 12.511 7.44127 12.821 7.66983 13.0496C7.89839 13.2782 8.20838 13.4066 8.53162 13.4066H13.4066C13.7298 13.4066 14.0398 13.2782 14.2684 13.0496C14.497 12.821 14.6254 12.511 14.6254 12.1878V7.31281C14.6254 6.98957 14.497 6.67958 14.2684 6.45102C14.0398 6.22246 13.7298 6.09406 13.4066 6.09406ZM12.1879 10.9691H9.75037V8.53156H12.1879V10.9691Z" fill="#FFBA09"/>
<path d="M39.4379 29.7855H34.2113V44.0003H30.6957V29.7855H25.5394V26.9378H39.4379V29.7855Z" fill="#FFBA09"/>
<path d="M57.2816 15.8441C58.2513 15.8441 59.1813 15.4588 59.867 14.7732C60.5527 14.0875 60.9379 13.1575 60.9379 12.1878V7.31281C60.9379 6.34311 60.5527 5.41313 59.867 4.72745C59.1813 4.04177 58.2513 3.65656 57.2816 3.65656H52.4066C51.4369 3.65656 50.5069 4.04177 49.8213 4.72745C49.1356 5.41313 48.7504 6.34311 48.7504 7.31281V8.53156H19.5004V4.87531C19.5004 3.90561 19.1152 2.97563 18.4295 2.28995C17.7438 1.60427 16.8138 1.21906 15.8441 1.21906H6.09412C5.12442 1.21906 4.19444 1.60427 3.50876 2.28995C2.82308 2.97563 2.43787 3.90561 2.43787 4.87531V14.6253C2.43787 15.595 2.82308 16.525 3.50876 17.2107C4.19444 17.8963 5.12442 18.2816 6.09412 18.2816H9.75037V48.7503H8.53162C7.56192 48.7503 6.63194 49.1355 5.94626 49.8212C5.26058 50.5069 4.87537 51.4369 4.87537 52.4066V57.2816C4.87537 58.2513 5.26058 59.1812 5.94626 59.8669C6.63194 60.5526 7.56192 60.9378 8.53162 60.9378H13.4066C14.3763 60.9378 15.3063 60.5526 15.992 59.8669C16.6777 59.1812 17.0629 58.2513 17.0629 57.2816V56.0628H48.7504V57.2816C48.7504 58.2513 49.1356 59.1812 49.8213 59.8669C50.5069 60.5526 51.4369 60.9378 52.4066 60.9378H57.2816C58.2513 60.9378 59.1813 60.5526 59.867 59.8669C60.5527 59.1812 60.9379 58.2513 60.9379 57.2816V52.4066C60.9379 51.4369 60.5527 50.5069 59.867 49.8212C59.1813 49.1355 58.2513 48.7503 57.2816 48.7503H56.0629V15.8441H57.2816ZM6.09412 15.8441C5.77088 15.8441 5.46089 15.7157 5.23233 15.4871C5.00377 15.2585 4.87537 14.9485 4.87537 14.6253V4.87531C4.87537 4.55207 5.00377 4.24208 5.23233 4.01352C5.46089 3.78496 5.77088 3.65656 6.09412 3.65656H15.8441C16.1673 3.65656 16.4773 3.78496 16.7059 4.01352C16.9345 4.24208 17.0629 4.55207 17.0629 4.87531V14.6253C17.0629 14.9485 16.9345 15.2585 16.7059 15.4871C16.4773 15.7157 16.1673 15.8441 15.8441 15.8441H6.09412ZM14.6254 57.2816C14.6254 57.6048 14.497 57.9148 14.2684 58.1433C14.0398 58.3719 13.7298 58.5003 13.4066 58.5003H8.53162C8.20838 58.5003 7.89839 58.3719 7.66983 58.1433C7.44127 57.9148 7.31287 57.6048 7.31287 57.2816V52.4066C7.31287 52.0833 7.44127 51.7733 7.66983 51.5448C7.89839 51.3162 8.20838 51.1878 8.53162 51.1878H13.4066C13.7298 51.1878 14.0398 51.3162 14.2684 51.5448C14.497 51.7733 14.6254 52.0833 14.6254 52.4066V57.2816ZM48.7504 52.4066V53.6253H17.0629V52.4066C17.0629 51.4369 16.6777 50.5069 15.992 49.8212C15.3063 49.1355 14.3763 48.7503 13.4066 48.7503H12.1879V18.2816H15.8441C16.8138 18.2816 17.7438 17.8963 18.4295 17.2107C19.1152 16.525 19.5004 15.595 19.5004 14.6253V10.9691H48.7504V12.1878C48.7504 13.1575 49.1356 14.0875 49.8213 14.7732C50.5069 15.4588 51.4369 15.8441 52.4066 15.8441H53.6254V48.7503H52.4066C51.4369 48.7503 50.5069 49.1355 49.8213 49.8212C49.1356 50.5069 48.7504 51.4369 48.7504 52.4066ZM57.2816 51.1878C57.6048 51.1878 57.9148 51.3162 58.1434 51.5448C58.372 51.7733 58.5004 52.0833 58.5004 52.4066V57.2816C58.5004 57.6048 58.372 57.9148 58.1434 58.1433C57.9148 58.3719 57.6048 58.5003 57.2816 58.5003H52.4066C52.0834 58.5003 51.7734 58.3719 51.5448 58.1433C51.3163 57.9148 51.1879 57.6048 51.1879 57.2816V52.4066C51.1879 52.0833 51.3163 51.7733 51.5448 51.5448C51.7734 51.3162 52.0834 51.1878 52.4066 51.1878H57.2816ZM52.4066 13.4066C52.0834 13.4066 51.7734 13.2782 51.5448 13.0496C51.3163 12.821 51.1879 12.511 51.1879 12.1878V7.31281C51.1879 6.98957 51.3163 6.67958 51.5448 6.45102C51.7734 6.22246 52.0834 6.09406 52.4066 6.09406H57.2816C57.6048 6.09406 57.9148 6.22246 58.1434 6.45102C58.372 6.67958 58.5004 6.98957 58.5004 7.31281V12.1878C58.5004 12.511 58.372 12.821 58.1434 13.0496C57.9148 13.2782 57.6048 13.4066 57.2816 13.4066H52.4066Z" fill="#20DDF5"/>
</svg>
