<svg width="78" height="78" viewBox="0 0 78 78" fill="none" xmlns="http://www.w3.org/2000/svg">
<path d="M69.246 50.9438C69.895 47.8905 69.895 44.7347 69.246 41.6813L75.1191 36.8478C75.3418 36.6643 75.4921 36.4079 75.5434 36.124C75.5947 35.8402 75.5437 35.5473 75.3994 35.2975L70.5244 26.854C70.3801 26.6042 70.1518 26.4137 69.8802 26.3164C69.6086 26.2191 69.3113 26.2213 69.0412 26.3227L61.9127 28.9942C59.5784 26.9262 56.8526 25.3481 53.897 24.3532L52.6502 16.8627C52.603 16.5786 52.4566 16.3203 52.2371 16.1338C52.0176 15.9473 51.7391 15.8446 51.451 15.8438H41.701C41.4123 15.8437 41.1329 15.946 40.9126 16.1326C40.6923 16.3192 40.5454 16.5779 40.4981 16.8627L39.2501 24.3532C36.2943 25.347 33.5688 26.9253 31.2356 28.9942L24.1096 26.3251C23.8394 26.2238 23.5421 26.2216 23.2705 26.3189C22.9989 26.4162 22.7707 26.6067 22.6263 26.8565L17.7513 35.3C17.607 35.5497 17.556 35.8426 17.6073 36.1265C17.6587 36.4103 17.809 36.6668 18.0316 36.8502L23.9048 41.6813C23.2574 44.7349 23.2574 47.8903 23.9048 50.9438L18.0377 55.775C17.8151 55.9584 17.6648 56.2149 17.6134 56.4987C17.5621 56.7826 17.6131 57.0754 17.7574 57.3252L22.6324 65.7687C22.7768 66.0185 23.005 66.209 23.2766 66.3063C23.5482 66.4036 23.8455 66.4014 24.1156 66.3001L31.2417 63.631C33.5747 65.7004 36.3003 67.2791 39.2562 68.2733L40.5042 75.7625C40.5515 76.0473 40.6984 76.306 40.9187 76.4926C41.139 76.6792 41.4184 76.7815 41.7071 76.7813H51.4571C51.7456 76.7812 52.0247 76.6787 52.2447 76.4922C52.4647 76.3056 52.6115 76.047 52.6588 75.7625L53.908 68.2733C56.86 67.2771 59.582 65.6985 61.9127 63.631L69.0363 66.3001C69.3065 66.4014 69.6038 66.4036 69.8754 66.3063C70.1469 66.209 70.3752 66.0185 70.5196 65.7687L75.3946 57.3252C75.5389 57.0754 75.5899 56.7826 75.5386 56.4987C75.4872 56.2149 75.3369 55.9584 75.1142 55.775L69.246 50.9438ZM46.576 57.2813C44.4066 57.2813 42.2859 56.638 40.4821 55.4328C38.6783 54.2275 37.2724 52.5144 36.4422 50.5101C35.612 48.5059 35.3948 46.3004 35.818 44.1727C36.2412 42.045 37.2859 40.0905 38.8199 38.5565C40.3539 37.0225 42.3084 35.9778 44.4361 35.5546C46.5638 35.1314 48.7693 35.3486 50.7736 36.1788C52.7778 37.009 54.4909 38.4149 55.6962 40.2187C56.9014 42.0225 57.5447 44.1432 57.5447 46.3126C57.5415 49.2207 56.3848 52.0088 54.3285 54.0651C52.2722 56.1214 49.4841 57.2781 46.576 57.2813Z" fill="#3E06DE"/>
<path d="M59.7191 1.21884H6.09412C5.12442 1.21884 4.19444 1.60405 3.50876 2.28973C2.82308 2.97541 2.43787 3.90539 2.43787 4.87509V48.7501C2.43787 49.7198 2.82308 50.6498 3.50876 51.3354C4.19444 52.0211 5.12442 52.4063 6.09412 52.4063H59.7191C60.6888 52.4063 61.6188 52.0211 62.3045 51.3354C62.9902 50.6498 63.3754 49.7198 63.3754 48.7501V4.87509C63.3754 3.90539 62.9902 2.97541 62.3045 2.28973C61.6188 1.60405 60.6888 1.21884 59.7191 1.21884ZM6.09412 3.65634H59.7191C60.0423 3.65634 60.3523 3.78475 60.5809 4.01331C60.8095 4.24187 60.9379 4.55186 60.9379 4.87509V10.9688H4.87537V4.87509C4.87537 4.55186 5.00377 4.24187 5.23233 4.01331C5.46089 3.78475 5.77088 3.65634 6.09412 3.65634ZM59.7191 49.9688H6.09412C5.77088 49.9688 5.46089 49.8404 5.23233 49.6119C5.00377 49.3833 4.87537 49.0733 4.87537 48.7501V13.4063H60.9379V48.7501C60.9379 49.0733 60.8095 49.3833 60.5809 49.6119C60.3523 49.8404 60.0423 49.9688 59.7191 49.9688Z" fill="#20DDF5"/>
<path d="M8.53162 8.53134H9.75037C10.0736 8.53134 10.3836 8.40294 10.6122 8.17438C10.8407 7.94582 10.9691 7.63582 10.9691 7.31259C10.9691 6.98936 10.8407 6.67937 10.6122 6.45081C10.3836 6.22225 10.0736 6.09384 9.75037 6.09384H8.53162C8.20838 6.09384 7.89839 6.22225 7.66983 6.45081C7.44127 6.67937 7.31287 6.98936 7.31287 7.31259C7.31287 7.63582 7.44127 7.94582 7.66983 8.17438C7.89839 8.40294 8.20838 8.53134 8.53162 8.53134Z" fill="#20DDF5"/>
<path d="M14.6254 8.53134H15.8441C16.1673 8.53134 16.4773 8.40294 16.7059 8.17438C16.9345 7.94582 17.0629 7.63582 17.0629 7.31259C17.0629 6.98936 16.9345 6.67937 16.7059 6.45081C16.4773 6.22225 16.1673 6.09384 15.8441 6.09384H14.6254C14.3021 6.09384 13.9921 6.22225 13.7636 6.45081C13.535 6.67937 13.4066 6.98936 13.4066 7.31259C13.4066 7.63582 13.535 7.94582 13.7636 8.17438C13.9921 8.40294 14.3021 8.53134 14.6254 8.53134Z" fill="#20DDF5"/>
<path d="M20.7191 8.53134H21.9379C22.2611 8.53134 22.5711 8.40294 22.7997 8.17438C23.0282 7.94582 23.1566 7.63582 23.1566 7.31259C23.1566 6.98936 23.0282 6.67937 22.7997 6.45081C22.5711 6.22225 22.2611 6.09384 21.9379 6.09384H20.7191C20.3959 6.09384 20.0859 6.22225 19.8573 6.45081C19.6288 6.67937 19.5004 6.98936 19.5004 7.31259C19.5004 7.63582 19.6288 7.94582 19.8573 8.17438C20.0859 8.40294 20.3959 8.53134 20.7191 8.53134Z" fill="#20DDF5"/>
<path d="M42.6566 8.53134H57.2816C57.6048 8.53134 57.9148 8.40294 58.1434 8.17438C58.372 7.94582 58.5004 7.63582 58.5004 7.31259C58.5004 6.98936 58.372 6.67937 58.1434 6.45081C57.9148 6.22225 57.6048 6.09384 57.2816 6.09384H42.6566C42.3334 6.09384 42.0234 6.22225 41.7948 6.45081C41.5663 6.67937 41.4379 6.98936 41.4379 7.31259C41.4379 7.63582 41.5663 7.94582 41.7948 8.17438C42.0234 8.40294 42.3334 8.53134 42.6566 8.53134Z" fill="#20DDF5"/>
<path d="M13.7635 30.1117C13.9933 30.3337 14.3012 30.4566 14.6207 30.4538C14.9403 30.451 15.246 30.3228 15.4719 30.0969C15.6979 29.8709 15.8261 29.5652 15.8288 29.2457C15.8316 28.9261 15.7088 28.6183 15.4868 28.3884L11.4734 24.3751L15.4868 20.3617C15.7088 20.1319 15.8316 19.824 15.8288 19.5045C15.8261 19.1849 15.6979 18.8792 15.4719 18.6533C15.246 18.4273 14.9403 18.2991 14.6207 18.2963C14.3012 18.2936 13.9933 18.4164 13.7635 18.6384L8.88845 23.5134C8.65997 23.742 8.53162 24.0519 8.53162 24.3751C8.53162 24.6982 8.65997 25.0082 8.88845 25.2367L13.7635 30.1117Z" fill="#FFBA09"/>
<path d="M24.7322 30.1117C24.9607 30.3402 25.2707 30.4686 25.5939 30.4686C25.917 30.4686 26.227 30.3402 26.4555 30.1117L31.3305 25.2367C31.559 25.0082 31.6873 24.6982 31.6873 24.3751C31.6873 24.0519 31.559 23.742 31.3305 23.5134L26.4555 18.6384C26.2257 18.4164 25.9178 18.2936 25.5982 18.2963C25.2787 18.2991 24.973 18.4273 24.747 18.6533C24.5211 18.8792 24.3929 19.1849 24.3901 19.5045C24.3874 19.824 24.5102 20.1319 24.7322 20.3617L28.7455 24.3751L24.7322 28.3884C24.5037 28.617 24.3754 28.9269 24.3754 29.2501C24.3754 29.5732 24.5037 29.8832 24.7322 30.1117Z" fill="#FFBA09"/>
<path d="M17.8537 30.3921C18.0036 30.4484 18.1631 30.4746 18.3231 30.4692C18.4831 30.4639 18.6405 30.427 18.7863 30.3608C18.9321 30.2946 19.0634 30.2003 19.1727 30.0834C19.282 29.9664 19.3672 29.829 19.4234 29.6791L23.0797 19.9291C23.1928 19.6262 23.181 19.2908 23.0468 18.9967C22.9127 18.7025 22.6671 18.4737 22.3643 18.3606C22.0614 18.2474 21.726 18.2593 21.4318 18.3934C21.1377 18.5276 20.9089 18.7731 20.7957 19.076L17.1395 28.826C17.027 29.1284 17.039 29.4631 17.1729 29.7567C17.3067 30.0502 17.5516 30.2787 17.8537 30.3921Z" fill="#FFBA09"/>
<path d="M56.0629 28.0313H42.6566C42.3334 28.0313 42.0234 28.1597 41.7948 28.3883C41.5663 28.6169 41.4379 28.9269 41.4379 29.2501C41.4379 29.5733 41.5663 29.8833 41.7948 30.1119C42.0234 30.3404 42.3334 30.4688 42.6566 30.4688H56.0629C56.3861 30.4688 56.6961 30.3404 56.9247 30.1119C57.1532 29.8833 57.2816 29.5733 57.2816 29.2501C57.2816 28.9269 57.1532 28.6169 56.9247 28.3883C56.6961 28.1597 56.3861 28.0313 56.0629 28.0313Z" fill="#20DDF5"/>
<path d="M56.0629 35.3438H28.0316C27.7084 35.3438 27.3984 35.4722 27.1698 35.7008C26.9413 35.9294 26.8129 36.2394 26.8129 36.5626C26.8129 36.8858 26.9413 37.1958 27.1698 37.4244C27.3984 37.6529 27.7084 37.7813 28.0316 37.7813H56.0629C56.3861 37.7813 56.6961 37.6529 56.9247 37.4244C57.1532 37.1958 57.2816 36.8858 57.2816 36.5626C57.2816 36.2394 57.1532 35.9294 56.9247 35.7008C56.6961 35.4722 56.3861 35.3438 56.0629 35.3438Z" fill="#20DDF5"/>
<path d="M9.75037 37.7813H23.1566C23.4798 37.7813 23.7898 37.6529 24.0184 37.4244C24.247 37.1958 24.3754 36.8858 24.3754 36.5626C24.3754 36.2394 24.247 35.9294 24.0184 35.7008C23.7898 35.4722 23.4798 35.3438 23.1566 35.3438H9.75037C9.42713 35.3438 9.11714 35.4722 8.88858 35.7008C8.66002 35.9294 8.53162 36.2394 8.53162 36.5626C8.53162 36.8858 8.66002 37.1958 8.88858 37.4244C9.11714 37.6529 9.42713 37.7813 9.75037 37.7813Z" fill="#20DDF5"/>
<path d="M56.0629 42.6563H42.6566C42.3334 42.6563 42.0234 42.7847 41.7948 43.0133C41.5663 43.2419 41.4379 43.5519 41.4379 43.8751C41.4379 44.1983 41.5663 44.5083 41.7948 44.7369C42.0234 44.9654 42.3334 45.0938 42.6566 45.0938H56.0629C56.3861 45.0938 56.6961 44.9654 56.9247 44.7369C57.1532 44.5083 57.2816 44.1983 57.2816 43.8751C57.2816 43.5519 57.1532 43.2419 56.9247 43.0133C56.6961 42.7847 56.3861 42.6563 56.0629 42.6563Z" fill="#20DDF5"/>
<path d="M37.7816 42.6563H9.75037C9.42713 42.6563 9.11714 42.7847 8.88858 43.0133C8.66002 43.2419 8.53162 43.5519 8.53162 43.8751C8.53162 44.1983 8.66002 44.5083 8.88858 44.7369C9.11714 44.9654 9.42713 45.0938 9.75037 45.0938H37.7816C38.1048 45.0938 38.4148 44.9654 38.6434 44.7369C38.872 44.5083 39.0004 44.1983 39.0004 43.8751C39.0004 43.5519 38.872 43.2419 38.6434 43.0133C38.4148 42.7847 38.1048 42.6563 37.7816 42.6563Z" fill="#20DDF5"/>
</svg>
